# Generated mesh
v 0.100000 0.000000 -0.000000
v 0.092388 0.038268 -0.000000
v 0.070711 0.070711 -0.000000
v 0.038268 0.092388 -0.000000
v 0.000000 0.100000 -0.000000
v -0.038268 0.092388 -0.000000
v -0.070711 0.070711 -0.000000
v -0.092388 0.038268 -0.000000
v -0.100000 0.000000 -0.000000
v -0.092388 -0.038268 -0.000000
v -0.070711 -0.070711 -0.000000
v -0.038268 -0.092388 -0.000000
v -0.000000 -0.100000 -0.000000
v 0.038268 -0.092388 -0.000000
v 0.070711 -0.070711 -0.000000
v 0.092388 -0.038268 -0.000000
v 0.098079 0.000000 -0.009755
v 0.090613 0.037533 -0.009755
v 0.069352 0.069352 -0.009755
v 0.037533 0.090613 -0.009755
v 0.000000 0.098079 -0.009755
v -0.037533 0.090613 -0.009755
v -0.069352 0.069352 -0.009755
v -0.090613 0.037533 -0.009755
v -0.098079 0.000000 -0.009755
v -0.090613 -0.037533 -0.009755
v -0.069352 -0.069352 -0.009755
v -0.037533 -0.090613 -0.009755
v -0.000000 -0.098079 -0.009755
v 0.037533 -0.090613 -0.009755
v 0.069352 -0.069352 -0.009755
v 0.090613 -0.037533 -0.009755
v 0.092388 0.000000 -0.019134
v 0.085355 0.035355 -0.019134
v 0.065328 0.065328 -0.019134
v 0.035355 0.085355 -0.019134
v 0.000000 0.092388 -0.019134
v -0.035355 0.085355 -0.019134
v -0.065328 0.065328 -0.019134
v -0.085355 0.035355 -0.019134
v -0.092388 0.000000 -0.019134
v -0.085355 -0.035355 -0.019134
v -0.065328 -0.065328 -0.019134
v -0.035355 -0.085355 -0.019134
v -0.000000 -0.092388 -0.019134
v 0.035355 -0.085355 -0.019134
v 0.065328 -0.065328 -0.019134
v 0.085355 -0.035355 -0.019134
v 0.083147 0.000000 -0.027779
v 0.076818 0.031819 -0.027779
v 0.058794 0.058794 -0.027779
v 0.031819 0.076818 -0.027779
v 0.000000 0.083147 -0.027779
v -0.031819 0.076818 -0.027779
v -0.058794 0.058794 -0.027779
v -0.076818 0.031819 -0.027779
v -0.083147 0.000000 -0.027779
v -0.076818 -0.031819 -0.027779
v -0.058794 -0.058794 -0.027779
v -0.031819 -0.076818 -0.027779
v -0.000000 -0.083147 -0.027779
v 0.031819 -0.076818 -0.027779
v 0.058794 -0.058794 -0.027779
v 0.076818 -0.031819 -0.027779
v 0.070711 0.000000 -0.035355
v 0.065328 0.027060 -0.035355
v 0.050000 0.050000 -0.035355
v 0.027060 0.065328 -0.035355
v 0.000000 0.070711 -0.035355
v -0.027060 0.065328 -0.035355
v -0.050000 0.050000 -0.035355
v -0.065328 0.027060 -0.035355
v -0.070711 0.000000 -0.035355
v -0.065328 -0.027060 -0.035355
v -0.050000 -0.050000 -0.035355
v -0.027060 -0.065328 -0.035355
v -0.000000 -0.070711 -0.035355
v 0.027060 -0.065328 -0.035355
v 0.050000 -0.050000 -0.035355
v 0.065328 -0.027060 -0.035355
v 0.055557 0.000000 -0.041573
v 0.051328 0.021261 -0.041573
v 0.039285 0.039285 -0.041573
v 0.021261 0.051328 -0.041573
v 0.000000 0.055557 -0.041573
v -0.021261 0.051328 -0.041573
v -0.039285 0.039285 -0.041573
v -0.051328 0.021261 -0.041573
v -0.055557 0.000000 -0.041573
v -0.051328 -0.021261 -0.041573
v -0.039285 -0.039285 -0.041573
v -0.021261 -0.051328 -0.041573
v -0.000000 -0.055557 -0.041573
v 0.021261 -0.051328 -0.041573
v 0.039285 -0.039285 -0.041573
v 0.051328 -0.021261 -0.041573
v 0.038268 0.000000 -0.046194
v 0.035355 0.014645 -0.046194
v 0.027060 0.027060 -0.046194
v 0.014645 0.035355 -0.046194
v 0.000000 0.038268 -0.046194
v -0.014645 0.035355 -0.046194
v -0.027060 0.027060 -0.046194
v -0.035355 0.014645 -0.046194
v -0.038268 0.000000 -0.046194
v -0.035355 -0.014645 -0.046194
v -0.027060 -0.027060 -0.046194
v -0.014645 -0.035355 -0.046194
v -0.000000 -0.038268 -0.046194
v 0.014645 -0.035355 -0.046194
v 0.027060 -0.027060 -0.046194
v 0.035355 -0.014645 -0.046194
v 0.019509 0.000000 -0.049039
v 0.018024 0.007466 -0.049039
v 0.013795 0.013795 -0.049039
v 0.007466 0.018024 -0.049039
v 0.000000 0.019509 -0.049039
v -0.007466 0.018024 -0.049039
v -0.013795 0.013795 -0.049039
v -0.018024 0.007466 -0.049039
v -0.019509 0.000000 -0.049039
v -0.018024 -0.007466 -0.049039
v -0.013795 -0.013795 -0.049039
v -0.007466 -0.018024 -0.049039
v -0.000000 -0.019509 -0.049039
v 0.007466 -0.018024 -0.049039
v 0.013795 -0.013795 -0.049039
v 0.018024 -0.007466 -0.049039
v 0.000000 0.000000 -0.050000
v 0.000000 0.000000 -0.050000
v 0.000000 0.000000 -0.050000
v 0.000000 0.000000 -0.050000
v 0.000000 0.000000 -0.050000
v -0.000000 0.000000 -0.050000
v -0.000000 0.000000 -0.050000
v -0.000000 0.000000 -0.050000
v -0.000000 0.000000 -0.050000
v -0.000000 -0.000000 -0.050000
v -0.000000 -0.000000 -0.050000
v -0.000000 -0.000000 -0.050000
v -0.000000 -0.000000 -0.050000
v 0.000000 -0.000000 -0.050000
v 0.000000 -0.000000 -0.050000
v 0.000000 -0.000000 -0.050000
v 0.090000 0.000000 -0.000000
v 0.083149 0.034442 -0.000000
v 0.063640 0.063640 -0.000000
v 0.034442 0.083149 -0.000000
v 0.000000 0.090000 -0.000000
v -0.034442 0.083149 -0.000000
v -0.063640 0.063640 -0.000000
v -0.083149 0.034442 -0.000000
v -0.090000 0.000000 -0.000000
v -0.083149 -0.034442 -0.000000
v -0.063640 -0.063640 -0.000000
v -0.034442 -0.083149 -0.000000
v -0.000000 -0.090000 -0.000000
v 0.034442 -0.083149 -0.000000
v 0.063640 -0.063640 -0.000000
v 0.083149 -0.034442 -0.000000
v 0.088271 0.000000 -0.009755
v 0.081551 0.033780 -0.009755
v 0.062417 0.062417 -0.009755
v 0.033780 0.081551 -0.009755
v 0.000000 0.088271 -0.009755
v -0.033780 0.081551 -0.009755
v -0.062417 0.062417 -0.009755
v -0.081551 0.033780 -0.009755
v -0.088271 0.000000 -0.009755
v -0.081551 -0.033780 -0.009755
v -0.062417 -0.062417 -0.009755
v -0.033780 -0.081551 -0.009755
v -0.000000 -0.088271 -0.009755
v 0.033780 -0.081551 -0.009755
v 0.062417 -0.062417 -0.009755
v 0.081551 -0.033780 -0.009755
v 0.083149 0.000000 -0.019134
v 0.076820 0.031820 -0.019134
v 0.058795 0.058795 -0.019134
v 0.031820 0.076820 -0.019134
v 0.000000 0.083149 -0.019134
v -0.031820 0.076820 -0.019134
v -0.058795 0.058795 -0.019134
v -0.076820 0.031820 -0.019134
v -0.083149 0.000000 -0.019134
v -0.076820 -0.031820 -0.019134
v -0.058795 -0.058795 -0.019134
v -0.031820 -0.076820 -0.019134
v -0.000000 -0.083149 -0.019134
v 0.031820 -0.076820 -0.019134
v 0.058795 -0.058795 -0.019134
v 0.076820 -0.031820 -0.019134
v 0.074832 0.000000 -0.027779
v 0.069136 0.028637 -0.027779
v 0.052914 0.052914 -0.027779
v 0.028637 0.069136 -0.027779
v 0.000000 0.074832 -0.027779
v -0.028637 0.069136 -0.027779
v -0.052914 0.052914 -0.027779
v -0.069136 0.028637 -0.027779
v -0.074832 0.000000 -0.027779
v -0.069136 -0.028637 -0.027779
v -0.052914 -0.052914 -0.027779
v -0.028637 -0.069136 -0.027779
v -0.000000 -0.074832 -0.027779
v 0.028637 -0.069136 -0.027779
v 0.052914 -0.052914 -0.027779
v 0.069136 -0.028637 -0.027779
v 0.063640 0.000000 -0.035355
v 0.058795 0.024354 -0.035355
v 0.045000 0.045000 -0.035355
v 0.024354 0.058795 -0.035355
v 0.000000 0.063640 -0.035355
v -0.024354 0.058795 -0.035355
v -0.045000 0.045000 -0.035355
v -0.058795 0.024354 -0.035355
v -0.063640 0.000000 -0.035355
v -0.058795 -0.024354 -0.035355
v -0.045000 -0.045000 -0.035355
v -0.024354 -0.058795 -0.035355
v -0.000000 -0.063640 -0.035355
v 0.024354 -0.058795 -0.035355
v 0.045000 -0.045000 -0.035355
v 0.058795 -0.024354 -0.035355
v 0.050001 0.000000 -0.041573
v 0.046195 0.019135 -0.041573
v 0.035356 0.035356 -0.041573
v 0.019135 0.046195 -0.041573
v 0.000000 0.050001 -0.041573
v -0.019135 0.046195 -0.041573
v -0.035356 0.035356 -0.041573
v -0.046195 0.019135 -0.041573
v -0.050001 0.000000 -0.041573
v -0.046195 -0.019135 -0.041573
v -0.035356 -0.035356 -0.041573
v -0.019135 -0.046195 -0.041573
v -0.000000 -0.050001 -0.041573
v 0.019135 -0.046195 -0.041573
v 0.035356 -0.035356 -0.041573
v 0.046195 -0.019135 -0.041573
v 0.034442 0.000000 -0.046194
v 0.031820 0.013180 -0.046194
v 0.024354 0.024354 -0.046194
v 0.013180 0.031820 -0.046194
v 0.000000 0.034442 -0.046194
v -0.013180 0.031820 -0.046194
v -0.024354 0.024354 -0.046194
v -0.031820 0.013180 -0.046194
v -0.034442 0.000000 -0.046194
v -0.031820 -0.013180 -0.046194
v -0.024354 -0.024354 -0.046194
v -0.013180 -0.031820 -0.046194
v -0.000000 -0.034442 -0.046194
v 0.013180 -0.031820 -0.046194
v 0.024354 -0.024354 -0.046194
v 0.031820 -0.013180 -0.046194
v 0.017558 0.000000 -0.049039
v 0.016222 0.006719 -0.049039
v 0.012415 0.012415 -0.049039
v 0.006719 0.016222 -0.049039
v 0.000000 0.017558 -0.049039
v -0.006719 0.016222 -0.049039
v -0.012415 0.012415 -0.049039
v -0.016222 0.006719 -0.049039
v -0.017558 0.000000 -0.049039
v -0.016222 -0.006719 -0.049039
v -0.012415 -0.012415 -0.049039
v -0.006719 -0.016222 -0.049039
v -0.000000 -0.017558 -0.049039
v 0.006719 -0.016222 -0.049039
v 0.012415 -0.012415 -0.049039
v 0.016222 -0.006719 -0.049039
v 0.000000 0.000000 -0.050000
v 0.000000 0.000000 -0.050000
v 0.000000 0.000000 -0.050000
v 0.000000 0.000000 -0.050000
v 0.000000 0.000000 -0.050000
v -0.000000 0.000000 -0.050000
v -0.000000 0.000000 -0.050000
v -0.000000 0.000000 -0.050000
v -0.000000 0.000000 -0.050000
v -0.000000 -0.000000 -0.050000
v -0.000000 -0.000000 -0.050000
v -0.000000 -0.000000 -0.050000
v -0.000000 -0.000000 -0.050000
v 0.000000 -0.000000 -0.050000
v 0.000000 -0.000000 -0.050000
v 0.000000 -0.000000 -0.050000
f 1 18 2
f 1 17 18
f 2 19 3
f 2 18 19
f 3 20 4
f 3 19 20
f 4 21 5
f 4 20 21
f 5 22 6
f 5 21 22
f 6 23 7
f 6 22 23
f 7 24 8
f 7 23 24
f 8 25 9
f 8 24 25
f 9 26 10
f 9 25 26
f 10 27 11
f 10 26 27
f 11 28 12
f 11 27 28
f 12 29 13
f 12 28 29
f 13 30 14
f 13 29 30
f 14 31 15
f 14 30 31
f 15 32 16
f 15 31 32
f 16 17 1
f 16 32 17
f 17 34 18
f 17 33 34
f 18 35 19
f 18 34 35
f 19 36 20
f 19 35 36
f 20 37 21
f 20 36 37
f 21 38 22
f 21 37 38
f 22 39 23
f 22 38 39
f 23 40 24
f 23 39 40
f 24 41 25
f 24 40 41
f 25 42 26
f 25 41 42
f 26 43 27
f 26 42 43
f 27 44 28
f 27 43 44
f 28 45 29
f 28 44 45
f 29 46 30
f 29 45 46
f 30 47 31
f 30 46 47
f 31 48 32
f 31 47 48
f 32 33 17
f 32 48 33
f 33 50 34
f 33 49 50
f 34 51 35
f 34 50 51
f 35 52 36
f 35 51 52
f 36 53 37
f 36 52 53
f 37 54 38
f 37 53 54
f 38 55 39
f 38 54 55
f 39 56 40
f 39 55 56
f 40 57 41
f 40 56 57
f 41 58 42
f 41 57 58
f 42 59 43
f 42 58 59
f 43 60 44
f 43 59 60
f 44 61 45
f 44 60 61
f 45 62 46
f 45 61 62
f 46 63 47
f 46 62 63
f 47 64 48
f 47 63 64
f 48 49 33
f 48 64 49
f 49 66 50
f 49 65 66
f 50 67 51
f 50 66 67
f 51 68 52
f 51 67 68
f 52 69 53
f 52 68 69
f 53 70 54
f 53 69 70
f 54 71 55
f 54 70 71
f 55 72 56
f 55 71 72
f 56 73 57
f 56 72 73
f 57 74 58
f 57 73 74
f 58 75 59
f 58 74 75
f 59 76 60
f 59 75 76
f 60 77 61
f 60 76 77
f 61 78 62
f 61 77 78
f 62 79 63
f 62 78 79
f 63 80 64
f 63 79 80
f 64 65 49
f 64 80 65
f 65 82 66
f 65 81 82
f 66 83 67
f 66 82 83
f 67 84 68
f 67 83 84
f 68 85 69
f 68 84 85
f 69 86 70
f 69 85 86
f 70 87 71
f 70 86 87
f 71 88 72
f 71 87 88
f 72 89 73
f 72 88 89
f 73 90 74
f 73 89 90
f 74 91 75
f 74 90 91
f 75 92 76
f 75 91 92
f 76 93 77
f 76 92 93
f 77 94 78
f 77 93 94
f 78 95 79
f 78 94 95
f 79 96 80
f 79 95 96
f 80 81 65
f 80 96 81
f 81 98 82
f 81 97 98
f 82 99 83
f 82 98 99
f 83 100 84
f 83 99 100
f 84 101 85
f 84 100 101
f 85 102 86
f 85 101 102
f 86 103 87
f 86 102 103
f 87 104 88
f 87 103 104
f 88 105 89
f 88 104 105
f 89 106 90
f 89 105 106
f 90 107 91
f 90 106 107
f 91 108 92
f 91 107 108
f 92 109 93
f 92 108 109
f 93 110 94
f 93 109 110
f 94 111 95
f 94 110 111
f 95 112 96
f 95 111 112
f 96 97 81
f 96 112 97
f 97 114 98
f 97 113 114
f 98 115 99
f 98 114 115
f 99 116 100
f 99 115 116
f 100 117 101
f 100 116 117
f 101 118 102
f 101 117 118
f 102 119 103
f 102 118 119
f 103 120 104
f 103 119 120
f 104 121 105
f 104 120 121
f 105 122 106
f 105 121 122
f 106 123 107
f 106 122 123
f 107 124 108
f 107 123 124
f 108 125 109
f 108 124 125
f 109 126 110
f 109 125 126
f 110 127 111
f 110 126 127
f 111 128 112
f 111 127 128
f 112 113 97
f 112 128 113
f 113 130 114
f 113 129 130
f 114 131 115
f 114 130 131
f 115 132 116
f 115 131 132
f 116 133 117
f 116 132 133
f 117 134 118
f 117 133 134
f 118 135 119
f 118 134 135
f 119 136 120
f 119 135 136
f 120 137 121
f 120 136 137
f 121 138 122
f 121 137 138
f 122 139 123
f 122 138 139
f 123 140 124
f 123 139 140
f 124 141 125
f 124 140 141
f 125 142 126
f 125 141 142
f 126 143 127
f 126 142 143
f 127 144 128
f 127 143 144
f 128 129 113
f 128 144 129
f 145 146 162
f 145 162 161
f 146 147 163
f 146 163 162
f 147 148 164
f 147 164 163
f 148 149 165
f 148 165 164
f 149 150 166
f 149 166 165
f 150 151 167
f 150 167 166
f 151 152 168
f 151 168 167
f 152 153 169
f 152 169 168
f 153 154 170
f 153 170 169
f 154 155 171
f 154 171 170
f 155 156 172
f 155 172 171
f 156 157 173
f 156 173 172
f 157 158 174
f 157 174 173
f 158 159 175
f 158 175 174
f 159 160 176
f 159 176 175
f 160 145 161
f 160 161 176
f 161 162 178
f 161 178 177
f 162 163 179
f 162 179 178
f 163 164 180
f 163 180 179
f 164 165 181
f 164 181 180
f 165 166 182
f 165 182 181
f 166 167 183
f 166 183 182
f 167 168 184
f 167 184 183
f 168 169 185
f 168 185 184
f 169 170 186
f 169 186 185
f 170 171 187
f 170 187 186
f 171 172 188
f 171 188 187
f 172 173 189
f 172 189 188
f 173 174 190
f 173 190 189
f 174 175 191
f 174 191 190
f 175 176 192
f 175 192 191
f 176 161 177
f 176 177 192
f 177 178 194
f 177 194 193
f 178 179 195
f 178 195 194
f 179 180 196
f 179 196 195
f 180 181 197
f 180 197 196
f 181 182 198
f 181 198 197
f 182 183 199
f 182 199 198
f 183 184 200
f 183 200 199
f 184 185 201
f 184 201 200
f 185 186 202
f 185 202 201
f 186 187 203
f 186 203 202
f 187 188 204
f 187 204 203
f 188 189 205
f 188 205 204
f 189 190 206
f 189 206 205
f 190 191 207
f 190 207 206
f 191 192 208
f 191 208 207
f 192 177 193
f 192 193 208
f 193 194 210
f 193 210 209
f 194 195 211
f 194 211 210
f 195 196 212
f 195 212 211
f 196 197 213
f 196 213 212
f 197 198 214
f 197 214 213
f 198 199 215
f 198 215 214
f 199 200 216
f 199 216 215
f 200 201 217
f 200 217 216
f 201 202 218
f 201 218 217
f 202 203 219
f 202 219 218
f 203 204 220
f 203 220 219
f 204 205 221
f 204 221 220
f 205 206 222
f 205 222 221
f 206 207 223
f 206 223 222
f 207 208 224
f 207 224 223
f 208 193 209
f 208 209 224
f 209 210 226
f 209 226 225
f 210 211 227
f 210 227 226
f 211 212 228
f 211 228 227
f 212 213 229
f 212 229 228
f 213 214 230
f 213 230 229
f 214 215 231
f 214 231 230
f 215 216 232
f 215 232 231
f 216 217 233
f 216 233 232
f 217 218 234
f 217 234 233
f 218 219 235
f 218 235 234
f 219 220 236
f 219 236 235
f 220 221 237
f 220 237 236
f 221 222 238
f 221 238 237
f 222 223 239
f 222 239 238
f 223 224 240
f 223 240 239
f 224 209 225
f 224 225 240
f 225 226 242
f 225 242 241
f 226 227 243
f 226 243 242
f 227 228 244
f 227 244 243
f 228 229 245
f 228 245 244
f 229 230 246
f 229 246 245
f 230 231 247
f 230 247 246
f 231 232 248
f 231 248 247
f 232 233 249
f 232 249 248
f 233 234 250
f 233 250 249
f 234 235 251
f 234 251 250
f 235 236 252
f 235 252 251
f 236 237 253
f 236 253 252
f 237 238 254
f 237 254 253
f 238 239 255
f 238 255 254
f 239 240 256
f 239 256 255
f 240 225 241
f 240 241 256
f 241 242 258
f 241 258 257
f 242 243 259
f 242 259 258
f 243 244 260
f 243 260 259
f 244 245 261
f 244 261 260
f 245 246 262
f 245 262 261
f 246 247 263
f 246 263 262
f 247 248 264
f 247 264 263
f 248 249 265
f 248 265 264
f 249 250 266
f 249 266 265
f 250 251 267
f 250 267 266
f 251 252 268
f 251 268 267
f 252 253 269
f 252 269 268
f 253 254 270
f 253 270 269
f 254 255 271
f 254 271 270
f 255 256 272
f 255 272 271
f 256 241 257
f 256 257 272
f 257 258 274
f 257 274 273
f 258 259 275
f 258 275 274
f 259 260 276
f 259 276 275
f 260 261 277
f 260 277 276
f 261 262 278
f 261 278 277
f 262 263 279
f 262 279 278
f 263 264 280
f 263 280 279
f 264 265 281
f 264 281 280
f 265 266 282
f 265 282 281
f 266 267 283
f 266 283 282
f 267 268 284
f 267 284 283
f 268 269 285
f 268 285 284
f 269 270 286
f 269 286 285
f 270 271 287
f 270 287 286
f 271 272 288
f 271 288 287
f 272 257 273
f 272 273 288
f 1 2 146
f 1 146 145
f 2 3 147
f 2 147 146
f 3 4 148
f 3 148 147
f 4 5 149
f 4 149 148
f 5 6 150
f 5 150 149
f 6 7 151
f 6 151 150
f 7 8 152
f 7 152 151
f 8 9 153
f 8 153 152
f 9 10 154
f 9 154 153
f 10 11 155
f 10 155 154
f 11 12 156
f 11 156 155
f 12 13 157
f 12 157 156
f 13 14 158
f 13 158 157
f 14 15 159
f 14 159 158
f 15 16 160
f 15 160 159
f 16 1 145
f 16 145 160
