# Generated mesh
v 0.100000 0.000000 -0.000000
v 0.098079 0.019509 -0.000000
v 0.092388 0.038268 -0.000000
v 0.083147 0.055557 -0.000000
v 0.070711 0.070711 -0.000000
v 0.055557 0.083147 -0.000000
v 0.038268 0.092388 -0.000000
v 0.019509 0.098079 -0.000000
v 0.000000 0.100000 -0.000000
v -0.019509 0.098079 -0.000000
v -0.038268 0.092388 -0.000000
v -0.055557 0.083147 -0.000000
v -0.070711 0.070711 -0.000000
v -0.083147 0.055557 -0.000000
v -0.092388 0.038268 -0.000000
v -0.098079 0.019509 -0.000000
v -0.100000 0.000000 -0.000000
v -0.098079 -0.019509 -0.000000
v -0.092388 -0.038268 -0.000000
v -0.083147 -0.055557 -0.000000
v -0.070711 -0.070711 -0.000000
v -0.055557 -0.083147 -0.000000
v -0.038268 -0.092388 -0.000000
v -0.019509 -0.098079 -0.000000
v -0.000000 -0.100000 -0.000000
v 0.019509 -0.098079 -0.000000
v 0.038268 -0.092388 -0.000000
v 0.055557 -0.083147 -0.000000
v 0.070711 -0.070711 -0.000000
v 0.083147 -0.055557 -0.000000
v 0.092388 -0.038268 -0.000000
v 0.098079 -0.019509 -0.000000
v 0.099518 0.000000 -0.002450
v 0.097606 0.019415 -0.002450
v 0.091943 0.038084 -0.002450
v 0.082747 0.055290 -0.002450
v 0.070370 0.070370 -0.002450
v 0.055290 0.082747 -0.002450
v 0.038084 0.091943 -0.002450
v 0.019415 0.097606 -0.002450
v 0.000000 0.099518 -0.002450
v -0.019415 0.097606 -0.002450
v -0.038084 0.091943 -0.002450
v -0.055290 0.082747 -0.002450
v -0.070370 0.070370 -0.002450
v -0.082747 0.055290 -0.002450
v -0.091943 0.038084 -0.002450
v -0.097606 0.019415 -0.002450
v -0.099518 0.000000 -0.002450
v -0.097606 -0.019415 -0.002450
v -0.091943 -0.038084 -0.002450
v -0.082747 -0.055290 -0.002450
v -0.070370 -0.070370 -0.002450
v -0.055290 -0.082747 -0.002450
v -0.038084 -0.091943 -0.002450
v -0.019415 -0.097606 -0.002450
v -0.000000 -0.099518 -0.002450
v 0.019415 -0.097606 -0.002450
v 0.038084 -0.091943 -0.002450
v 0.055290 -0.082747 -0.002450
v 0.070370 -0.070370 -0.002450
v 0.082747 -0.055290 -0.002450
v 0.091943 -0.038084 -0.002450
v 0.097606 -0.019415 -0.002450
v 0.098079 0.000000 -0.004877
v 0.096194 0.019134 -0.004877
v 0.090613 0.037533 -0.004877
v 0.081549 0.054490 -0.004877
v 0.069352 0.069352 -0.004877
v 0.054490 0.081549 -0.004877
v 0.037533 0.090613 -0.004877
v 0.019134 0.096194 -0.004877
v 0.000000 0.098079 -0.004877
v -0.019134 0.096194 -0.004877
v -0.037533 0.090613 -0.004877
v -0.054490 0.081549 -0.004877
v -0.069352 0.069352 -0.004877
v -0.081549 0.054490 -0.004877
v -0.090613 0.037533 -0.004877
v -0.096194 0.019134 -0.004877
v -0.098079 0.000000 -0.004877
v -0.096194 -0.019134 -0.004877
v -0.090613 -0.037533 -0.004877
v -0.081549 -0.054490 -0.004877
v -0.069352 -0.069352 -0.004877
v -0.054490 -0.081549 -0.004877
v -0.037533 -0.090613 -0.004877
v -0.019134 -0.096194 -0.004877
v -0.000000 -0.098079 -0.004877
v 0.019134 -0.096194 -0.004877
v 0.037533 -0.090613 -0.004877
v 0.054490 -0.081549 -0.004877
v 0.069352 -0.069352 -0.004877
v 0.081549 -0.054490 -0.004877
v 0.090613 -0.037533 -0.004877
v 0.096194 -0.019134 -0.004877
v 0.095694 0.000000 -0.007257
v 0.093855 0.018669 -0.007257
v 0.088410 0.036621 -0.007257
v 0.079567 0.053165 -0.007257
v 0.067666 0.067666 -0.007257
v 0.053165 0.079567 -0.007257
v 0.036621 0.088410 -0.007257
v 0.018669 0.093855 -0.007257
v 0.000000 0.095694 -0.007257
v -0.018669 0.093855 -0.007257
v -0.036621 0.088410 -0.007257
v -0.053165 0.079567 -0.007257
v -0.067666 0.067666 -0.007257
v -0.079567 0.053165 -0.007257
v -0.088410 0.036621 -0.007257
v -0.093855 0.018669 -0.007257
v -0.095694 0.000000 -0.007257
v -0.093855 -0.018669 -0.007257
v -0.088410 -0.036621 -0.007257
v -0.079567 -0.053165 -0.007257
v -0.067666 -0.067666 -0.007257
v -0.053165 -0.079567 -0.007257
v -0.036621 -0.088410 -0.007257
v -0.018669 -0.093855 -0.007257
v -0.000000 -0.095694 -0.007257
v 0.018669 -0.093855 -0.007257
v 0.036621 -0.088410 -0.007257
v 0.053165 -0.079567 -0.007257
v 0.067666 -0.067666 -0.007257
v 0.079567 -0.053165 -0.007257
v 0.088410 -0.036621 -0.007257
v 0.093855 -0.018669 -0.007257
v 0.092388 0.000000 -0.009567
v 0.090613 0.018024 -0.009567
v 0.085355 0.035355 -0.009567
v 0.076818 0.051328 -0.009567
v 0.065328 0.065328 -0.009567
v 0.051328 0.076818 -0.009567
v 0.035355 0.085355 -0.009567
v 0.018024 0.090613 -0.009567
v 0.000000 0.092388 -0.009567
v -0.018024 0.090613 -0.009567
v -0.035355 0.085355 -0.009567
v -0.051328 0.076818 -0.009567
v -0.065328 0.065328 -0.009567
v -0.076818 0.051328 -0.009567
v -0.085355 0.035355 -0.009567
v -0.090613 0.018024 -0.009567
v -0.092388 0.000000 -0.009567
v -0.090613 -0.018024 -0.009567
v -0.085355 -0.035355 -0.009567
v -0.076818 -0.051328 -0.009567
v -0.065328 -0.065328 -0.009567
v -0.051328 -0.076818 -0.009567
v -0.035355 -0.085355 -0.009567
v -0.018024 -0.090613 -0.009567
v -0.000000 -0.092388 -0.009567
v 0.018024 -0.090613 -0.009567
v 0.035355 -0.085355 -0.009567
v 0.051328 -0.076818 -0.009567
v 0.065328 -0.065328 -0.009567
v 0.076818 -0.051328 -0.009567
v 0.085355 -0.035355 -0.009567
v 0.090613 -0.018024 -0.009567
v 0.088192 0.000000 -0.011785
v 0.086498 0.017205 -0.011785
v 0.081479 0.033750 -0.011785
v 0.073329 0.048997 -0.011785
v 0.062361 0.062361 -0.011785
v 0.048997 0.073329 -0.011785
v 0.033750 0.081479 -0.011785
v 0.017205 0.086498 -0.011785
v 0.000000 0.088192 -0.011785
v -0.017205 0.086498 -0.011785
v -0.033750 0.081479 -0.011785
v -0.048997 0.073329 -0.011785
v -0.062361 0.062361 -0.011785
v -0.073329 0.048997 -0.011785
v -0.081479 0.033750 -0.011785
v -0.086498 0.017205 -0.011785
v -0.088192 0.000000 -0.011785
v -0.086498 -0.017205 -0.011785
v -0.081479 -0.033750 -0.011785
v -0.073329 -0.048997 -0.011785
v -0.062361 -0.062361 -0.011785
v -0.048997 -0.073329 -0.011785
v -0.033750 -0.081479 -0.011785
v -0.017205 -0.086498 -0.011785
v -0.000000 -0.088192 -0.011785
v 0.017205 -0.086498 -0.011785
v 0.033750 -0.081479 -0.011785
v 0.048997 -0.073329 -0.011785
v 0.062361 -0.062361 -0.011785
v 0.073329 -0.048997 -0.011785
v 0.081479 -0.033750 -0.011785
v 0.086498 -0.017205 -0.011785
v 0.083147 0.000000 -0.013889
v 0.081549 0.016221 -0.013889
v 0.076818 0.031819 -0.013889
v 0.069134 0.046194 -0.013889
v 0.058794 0.058794 -0.013889
v 0.046194 0.069134 -0.013889
v 0.031819 0.076818 -0.013889
v 0.016221 0.081549 -0.013889
v 0.000000 0.083147 -0.013889
v -0.016221 0.081549 -0.013889
v -0.031819 0.076818 -0.013889
v -0.046194 0.069134 -0.013889
v -0.058794 0.058794 -0.013889
v -0.069134 0.046194 -0.013889
v -0.076818 0.031819 -0.013889
v -0.081549 0.016221 -0.013889
v -0.083147 0.000000 -0.013889
v -0.081549 -0.016221 -0.013889
v -0.076818 -0.031819 -0.013889
v -0.069134 -0.046194 -0.013889
v -0.058794 -0.058794 -0.013889
v -0.046194 -0.069134 -0.013889
v -0.031819 -0.076818 -0.013889
v -0.016221 -0.081549 -0.013889
v -0.000000 -0.083147 -0.013889
v 0.016221 -0.081549 -0.013889
v 0.031819 -0.076818 -0.013889
v 0.046194 -0.069134 -0.013889
v 0.058794 -0.058794 -0.013889
v 0.069134 -0.046194 -0.013889
v 0.076818 -0.031819 -0.013889
v 0.081549 -0.016221 -0.013889
v 0.077301 0.000000 -0.015860
v 0.075816 0.015081 -0.015860
v 0.071417 0.029582 -0.015860
v 0.064273 0.042946 -0.015860
v 0.054660 0.054660 -0.015860
v 0.042946 0.064273 -0.015860
v 0.029582 0.071417 -0.015860
v 0.015081 0.075816 -0.015860
v 0.000000 0.077301 -0.015860
v -0.015081 0.075816 -0.015860
v -0.029582 0.071417 -0.015860
v -0.042946 0.064273 -0.015860
v -0.054660 0.054660 -0.015860
v -0.064273 0.042946 -0.015860
v -0.071417 0.029582 -0.015860
v -0.075816 0.015081 -0.015860
v -0.077301 0.000000 -0.015860
v -0.075816 -0.015081 -0.015860
v -0.071417 -0.029582 -0.015860
v -0.064273 -0.042946 -0.015860
v -0.054660 -0.054660 -0.015860
v -0.042946 -0.064273 -0.015860
v -0.029582 -0.071417 -0.015860
v -0.015081 -0.075816 -0.015860
v -0.000000 -0.077301 -0.015860
v 0.015081 -0.075816 -0.015860
v 0.029582 -0.071417 -0.015860
v 0.042946 -0.064273 -0.015860
v 0.054660 -0.054660 -0.015860
v 0.064273 -0.042946 -0.015860
v 0.071417 -0.029582 -0.015860
v 0.075816 -0.015081 -0.015860
v 0.070711 0.000000 -0.017678
v 0.069352 0.013795 -0.017678
v 0.065328 0.027060 -0.017678
v 0.058794 0.039285 -0.017678
v 0.050000 0.050000 -0.017678
v 0.039285 0.058794 -0.017678
v 0.027060 0.065328 -0.017678
v 0.013795 0.069352 -0.017678
v 0.000000 0.070711 -0.017678
v -0.013795 0.069352 -0.017678
v -0.027060 0.065328 -0.017678
v -0.039285 0.058794 -0.017678
v -0.050000 0.050000 -0.017678
v -0.058794 0.039285 -0.017678
v -0.065328 0.027060 -0.017678
v -0.069352 0.013795 -0.017678
v -0.070711 0.000000 -0.017678
v -0.069352 -0.013795 -0.017678
v -0.065328 -0.027060 -0.017678
v -0.058794 -0.039285 -0.017678
v -0.050000 -0.050000 -0.017678
v -0.039285 -0.058794 -0.017678
v -0.027060 -0.065328 -0.017678
v -0.013795 -0.069352 -0.017678
v -0.000000 -0.070711 -0.017678
v 0.013795 -0.069352 -0.017678
v 0.027060 -0.065328 -0.017678
v 0.039285 -0.058794 -0.017678
v 0.050000 -0.050000 -0.017678
v 0.058794 -0.039285 -0.017678
v 0.065328 -0.027060 -0.017678
v 0.069352 -0.013795 -0.017678
v 0.063439 0.000000 -0.019325
v 0.062220 0.012376 -0.019325
v 0.058610 0.024277 -0.019325
v 0.052748 0.035245 -0.019325
v 0.044858 0.044858 -0.019325
v 0.035245 0.052748 -0.019325
v 0.024277 0.058610 -0.019325
v 0.012376 0.062220 -0.019325
v 0.000000 0.063439 -0.019325
v -0.012376 0.062220 -0.019325
v -0.024277 0.058610 -0.019325
v -0.035245 0.052748 -0.019325
v -0.044858 0.044858 -0.019325
v -0.052748 0.035245 -0.019325
v -0.058610 0.024277 -0.019325
v -0.062220 0.012376 -0.019325
v -0.063439 0.000000 -0.019325
v -0.062220 -0.012376 -0.019325
v -0.058610 -0.024277 -0.019325
v -0.052748 -0.035245 -0.019325
v -0.044858 -0.044858 -0.019325
v -0.035245 -0.052748 -0.019325
v -0.024277 -0.058610 -0.019325
v -0.012376 -0.062220 -0.019325
v -0.000000 -0.063439 -0.019325
v 0.012376 -0.062220 -0.019325
v 0.024277 -0.058610 -0.019325
v 0.035245 -0.052748 -0.019325
v 0.044858 -0.044858 -0.019325
v 0.052748 -0.035245 -0.019325
v 0.058610 -0.024277 -0.019325
v 0.062220 -0.012376 -0.019325
v 0.055557 0.000000 -0.020787
v 0.054490 0.010839 -0.020787
v 0.051328 0.021261 -0.020787
v 0.046194 0.030866 -0.020787
v 0.039285 0.039285 -0.020787
v 0.030866 0.046194 -0.020787
v 0.021261 0.051328 -0.020787
v 0.010839 0.054490 -0.020787
v 0.000000 0.055557 -0.020787
v -0.010839 0.054490 -0.020787
v -0.021261 0.051328 -0.020787
v -0.030866 0.046194 -0.020787
v -0.039285 0.039285 -0.020787
v -0.046194 0.030866 -0.020787
v -0.051328 0.021261 -0.020787
v -0.054490 0.010839 -0.020787
v -0.055557 0.000000 -0.020787
v -0.054490 -0.010839 -0.020787
v -0.051328 -0.021261 -0.020787
v -0.046194 -0.030866 -0.020787
v -0.039285 -0.039285 -0.020787
v -0.030866 -0.046194 -0.020787
v -0.021261 -0.051328 -0.020787
v -0.010839 -0.054490 -0.020787
v -0.000000 -0.055557 -0.020787
v 0.010839 -0.054490 -0.020787
v 0.021261 -0.051328 -0.020787
v 0.030866 -0.046194 -0.020787
v 0.039285 -0.039285 -0.020787
v 0.046194 -0.030866 -0.020787
v 0.051328 -0.021261 -0.020787
v 0.054490 -0.010839 -0.020787
v 0.047140 0.000000 -0.022048
v 0.046234 0.009196 -0.022048
v 0.043551 0.018040 -0.022048
v 0.039195 0.026189 -0.022048
v 0.033333 0.033333 -0.022048
v 0.026189 0.039195 -0.022048
v 0.018040 0.043551 -0.022048
v 0.009196 0.046234 -0.022048
v 0.000000 0.047140 -0.022048
v -0.009196 0.046234 -0.022048
v -0.018040 0.043551 -0.022048
v -0.026189 0.039195 -0.022048
v -0.033333 0.033333 -0.022048
v -0.039195 0.026189 -0.022048
v -0.043551 0.018040 -0.022048
v -0.046234 0.009196 -0.022048
v -0.047140 0.000000 -0.022048
v -0.046234 -0.009196 -0.022048
v -0.043551 -0.018040 -0.022048
v -0.039195 -0.026189 -0.022048
v -0.033333 -0.033333 -0.022048
v -0.026189 -0.039195 -0.022048
v -0.018040 -0.043551 -0.022048
v -0.009196 -0.046234 -0.022048
v -0.000000 -0.047140 -0.022048
v 0.009196 -0.046234 -0.022048
v 0.018040 -0.043551 -0.022048
v 0.026189 -0.039195 -0.022048
v 0.033333 -0.033333 -0.022048
v 0.039195 -0.026189 -0.022048
v 0.043551 -0.018040 -0.022048
v 0.046234 -0.009196 -0.022048
v 0.038268 0.000000 -0.023097
v 0.037533 0.007466 -0.023097
v 0.035355 0.014645 -0.023097
v 0.031819 0.021261 -0.023097
v 0.027060 0.027060 -0.023097
v 0.021261 0.031819 -0.023097
v 0.014645 0.035355 -0.023097
v 0.007466 0.037533 -0.023097
v 0.000000 0.038268 -0.023097
v -0.007466 0.037533 -0.023097
v -0.014645 0.035355 -0.023097
v -0.021261 0.031819 -0.023097
v -0.027060 0.027060 -0.023097
v -0.031819 0.021261 -0.023097
v -0.035355 0.014645 -0.023097
v -0.037533 0.007466 -0.023097
v -0.038268 0.000000 -0.023097
v -0.037533 -0.007466 -0.023097
v -0.035355 -0.014645 -0.023097
v -0.031819 -0.021261 -0.023097
v -0.027060 -0.027060 -0.023097
v -0.021261 -0.031819 -0.023097
v -0.014645 -0.035355 -0.023097
v -0.007466 -0.037533 -0.023097
v -0.000000 -0.038268 -0.023097
v 0.007466 -0.037533 -0.023097
v 0.014645 -0.035355 -0.023097
v 0.021261 -0.031819 -0.023097
v 0.027060 -0.027060 -0.023097
v 0.031819 -0.021261 -0.023097
v 0.035355 -0.014645 -0.023097
v 0.037533 -0.007466 -0.023097
v 0.029028 0.000000 -0.023924
v 0.028471 0.005663 -0.023924
v 0.026819 0.011109 -0.023924
v 0.024136 0.016127 -0.023924
v 0.020526 0.020526 -0.023924
v 0.016127 0.024136 -0.023924
v 0.011109 0.026819 -0.023924
v 0.005663 0.028471 -0.023924
v 0.000000 0.029028 -0.023924
v -0.005663 0.028471 -0.023924
v -0.011109 0.026819 -0.023924
v -0.016127 0.024136 -0.023924
v -0.020526 0.020526 -0.023924
v -0.024136 0.016127 -0.023924
v -0.026819 0.011109 -0.023924
v -0.028471 0.005663 -0.023924
v -0.029028 0.000000 -0.023924
v -0.028471 -0.005663 -0.023924
v -0.026819 -0.011109 -0.023924
v -0.024136 -0.016127 -0.023924
v -0.020526 -0.020526 -0.023924
v -0.016127 -0.024136 -0.023924
v -0.011109 -0.026819 -0.023924
v -0.005663 -0.028471 -0.023924
v -0.000000 -0.029028 -0.023924
v 0.005663 -0.028471 -0.023924
v 0.011109 -0.026819 -0.023924
v 0.016127 -0.024136 -0.023924
v 0.020526 -0.020526 -0.023924
v 0.024136 -0.016127 -0.023924
v 0.026819 -0.011109 -0.023924
v 0.028471 -0.005663 -0.023924
v 0.019509 0.000000 -0.024520
v 0.019134 0.003806 -0.024520
v 0.018024 0.007466 -0.024520
v 0.016221 0.010839 -0.024520
v 0.013795 0.013795 -0.024520
v 0.010839 0.016221 -0.024520
v 0.007466 0.018024 -0.024520
v 0.003806 0.019134 -0.024520
v 0.000000 0.019509 -0.024520
v -0.003806 0.019134 -0.024520
v -0.007466 0.018024 -0.024520
v -0.010839 0.016221 -0.024520
v -0.013795 0.013795 -0.024520
v -0.016221 0.010839 -0.024520
v -0.018024 0.007466 -0.024520
v -0.019134 0.003806 -0.024520
v -0.019509 0.000000 -0.024520
v -0.019134 -0.003806 -0.024520
v -0.018024 -0.007466 -0.024520
v -0.016221 -0.010839 -0.024520
v -0.013795 -0.013795 -0.024520
v -0.010839 -0.016221 -0.024520
v -0.007466 -0.018024 -0.024520
v -0.003806 -0.019134 -0.024520
v -0.000000 -0.019509 -0.024520
v 0.003806 -0.019134 -0.024520
v 0.007466 -0.018024 -0.024520
v 0.010839 -0.016221 -0.024520
v 0.013795 -0.013795 -0.024520
v 0.016221 -0.010839 -0.024520
v 0.018024 -0.007466 -0.024520
v 0.019134 -0.003806 -0.024520
v 0.009802 0.000000 -0.024880
v 0.009613 0.001912 -0.024880
v 0.009056 0.003751 -0.024880
v 0.008150 0.005446 -0.024880
v 0.006931 0.006931 -0.024880
v 0.005446 0.008150 -0.024880
v 0.003751 0.009056 -0.024880
v 0.001912 0.009613 -0.024880
v 0.000000 0.009802 -0.024880
v -0.001912 0.009613 -0.024880
v -0.003751 0.009056 -0.024880
v -0.005446 0.008150 -0.024880
v -0.006931 0.006931 -0.024880
v -0.008150 0.005446 -0.024880
v -0.009056 0.003751 -0.024880
v -0.009613 0.001912 -0.024880
v -0.009802 0.000000 -0.024880
v -0.009613 -0.001912 -0.024880
v -0.009056 -0.003751 -0.024880
v -0.008150 -0.005446 -0.024880
v -0.006931 -0.006931 -0.024880
v -0.005446 -0.008150 -0.024880
v -0.003751 -0.009056 -0.024880
v -0.001912 -0.009613 -0.024880
v -0.000000 -0.009802 -0.024880
v 0.001912 -0.009613 -0.024880
v 0.003751 -0.009056 -0.024880
v 0.005446 -0.008150 -0.024880
v 0.006931 -0.006931 -0.024880
v 0.008150 -0.005446 -0.024880
v 0.009056 -0.003751 -0.024880
v 0.009613 -0.001912 -0.024880
v 0.000000 0.000000 -0.025000
v 0.000000 0.000000 -0.025000
v 0.000000 0.000000 -0.025000
v 0.000000 0.000000 -0.025000
v 0.000000 0.000000 -0.025000
v 0.000000 0.000000 -0.025000
v 0.000000 0.000000 -0.025000
v 0.000000 0.000000 -0.025000
v 0.000000 0.000000 -0.025000
v -0.000000 0.000000 -0.025000
v -0.000000 0.000000 -0.025000
v -0.000000 0.000000 -0.025000
v -0.000000 0.000000 -0.025000
v -0.000000 0.000000 -0.025000
v -0.000000 0.000000 -0.025000
v -0.000000 0.000000 -0.025000
v -0.000000 0.000000 -0.025000
v -0.000000 -0.000000 -0.025000
v -0.000000 -0.000000 -0.025000
v -0.000000 -0.000000 -0.025000
v -0.000000 -0.000000 -0.025000
v -0.000000 -0.000000 -0.025000
v -0.000000 -0.000000 -0.025000
v -0.000000 -0.000000 -0.025000
v -0.000000 -0.000000 -0.025000
v 0.000000 -0.000000 -0.025000
v 0.000000 -0.000000 -0.025000
v 0.000000 -0.000000 -0.025000
v 0.000000 -0.000000 -0.025000
v 0.000000 -0.000000 -0.025000
v 0.000000 -0.000000 -0.025000
v 0.000000 -0.000000 -0.025000
v 0.045000 0.000000 -0.000000
v 0.044135 0.008779 -0.000000
v 0.041575 0.017221 -0.000000
v 0.037416 0.025001 -0.000000
v 0.031820 0.031820 -0.000000
v 0.025001 0.037416 -0.000000
v 0.017221 0.041575 -0.000000
v 0.008779 0.044135 -0.000000
v 0.000000 0.045000 -0.000000
v -0.008779 0.044135 -0.000000
v -0.017221 0.041575 -0.000000
v -0.025001 0.037416 -0.000000
v -0.031820 0.031820 -0.000000
v -0.037416 0.025001 -0.000000
v -0.041575 0.017221 -0.000000
v -0.044135 0.008779 -0.000000
v -0.045000 0.000000 -0.000000
v -0.044135 -0.008779 -0.000000
v -0.041575 -0.017221 -0.000000
v -0.037416 -0.025001 -0.000000
v -0.031820 -0.031820 -0.000000
v -0.025001 -0.037416 -0.000000
v -0.017221 -0.041575 -0.000000
v -0.008779 -0.044135 -0.000000
v -0.000000 -0.045000 -0.000000
v 0.008779 -0.044135 -0.000000
v 0.017221 -0.041575 -0.000000
v 0.025001 -0.037416 -0.000000
v 0.031820 -0.031820 -0.000000
v 0.037416 -0.025001 -0.000000
v 0.041575 -0.017221 -0.000000
v 0.044135 -0.008779 -0.000000
v 0.044783 0.000000 -0.002450
v 0.043923 0.008737 -0.002450
v 0.041374 0.017138 -0.002450
v 0.037236 0.024880 -0.002450
v 0.031667 0.031667 -0.002450
v 0.024880 0.037236 -0.002450
v 0.017138 0.041374 -0.002450
v 0.008737 0.043923 -0.002450
v 0.000000 0.044783 -0.002450
v -0.008737 0.043923 -0.002450
v -0.017138 0.041374 -0.002450
v -0.024880 0.037236 -0.002450
v -0.031667 0.031667 -0.002450
v -0.037236 0.024880 -0.002450
v -0.041374 0.017138 -0.002450
v -0.043923 0.008737 -0.002450
v -0.044783 0.000000 -0.002450
v -0.043923 -0.008737 -0.002450
v -0.041374 -0.017138 -0.002450
v -0.037236 -0.024880 -0.002450
v -0.031667 -0.031667 -0.002450
v -0.024880 -0.037236 -0.002450
v -0.017138 -0.041374 -0.002450
v -0.008737 -0.043923 -0.002450
v -0.000000 -0.044783 -0.002450
v 0.008737 -0.043923 -0.002450
v 0.017138 -0.041374 -0.002450
v 0.024880 -0.037236 -0.002450
v 0.031667 -0.031667 -0.002450
v 0.037236 -0.024880 -0.002450
v 0.041374 -0.017138 -0.002450
v 0.043923 -0.008737 -0.002450
v 0.044135 0.000000 -0.004877
v 0.043287 0.008610 -0.004877
v 0.040776 0.016890 -0.004877
v 0.036697 0.024520 -0.004877
v 0.031208 0.031208 -0.004877
v 0.024520 0.036697 -0.004877
v 0.016890 0.040776 -0.004877
v 0.008610 0.043287 -0.004877
v 0.000000 0.044135 -0.004877
v -0.008610 0.043287 -0.004877
v -0.016890 0.040776 -0.004877
v -0.024520 0.036697 -0.004877
v -0.031208 0.031208 -0.004877
v -0.036697 0.024520 -0.004877
v -0.040776 0.016890 -0.004877
v -0.043287 0.008610 -0.004877
v -0.044135 0.000000 -0.004877
v -0.043287 -0.008610 -0.004877
v -0.040776 -0.016890 -0.004877
v -0.036697 -0.024520 -0.004877
v -0.031208 -0.031208 -0.004877
v -0.024520 -0.036697 -0.004877
v -0.016890 -0.040776 -0.004877
v -0.008610 -0.043287 -0.004877
v -0.000000 -0.044135 -0.004877
v 0.008610 -0.043287 -0.004877
v 0.016890 -0.040776 -0.004877
v 0.024520 -0.036697 -0.004877
v 0.031208 -0.031208 -0.004877
v 0.036697 -0.024520 -0.004877
v 0.040776 -0.016890 -0.004877
v 0.043287 -0.008610 -0.004877
v 0.043062 0.000000 -0.007257
v 0.042235 0.008401 -0.007257
v 0.039784 0.016479 -0.007257
v 0.035805 0.023924 -0.007257
v 0.030450 0.030450 -0.007257
v 0.023924 0.035805 -0.007257
v 0.016479 0.039784 -0.007257
v 0.008401 0.042235 -0.007257
v 0.000000 0.043062 -0.007257
v -0.008401 0.042235 -0.007257
v -0.016479 0.039784 -0.007257
v -0.023924 0.035805 -0.007257
v -0.030450 0.030450 -0.007257
v -0.035805 0.023924 -0.007257
v -0.039784 0.016479 -0.007257
v -0.042235 0.008401 -0.007257
v -0.043062 0.000000 -0.007257
v -0.042235 -0.008401 -0.007257
v -0.039784 -0.016479 -0.007257
v -0.035805 -0.023924 -0.007257
v -0.030450 -0.030450 -0.007257
v -0.023924 -0.035805 -0.007257
v -0.016479 -0.039784 -0.007257
v -0.008401 -0.042235 -0.007257
v -0.000000 -0.043062 -0.007257
v 0.008401 -0.042235 -0.007257
v 0.016479 -0.039784 -0.007257
v 0.023924 -0.035805 -0.007257
v 0.030450 -0.030450 -0.007257
v 0.035805 -0.023924 -0.007257
v 0.039784 -0.016479 -0.007257
v 0.042235 -0.008401 -0.007257
v 0.041575 0.000000 -0.009567
v 0.040776 0.008111 -0.009567
v 0.038410 0.015910 -0.009567
v 0.034568 0.023098 -0.009567
v 0.029398 0.029398 -0.009567
v 0.023098 0.034568 -0.009567
v 0.015910 0.038410 -0.009567
v 0.008111 0.040776 -0.009567
v 0.000000 0.041575 -0.009567
v -0.008111 0.040776 -0.009567
v -0.015910 0.038410 -0.009567
v -0.023098 0.034568 -0.009567
v -0.029398 0.029398 -0.009567
v -0.034568 0.023098 -0.009567
v -0.038410 0.015910 -0.009567
v -0.040776 0.008111 -0.009567
v -0.041575 0.000000 -0.009567
v -0.040776 -0.008111 -0.009567
v -0.038410 -0.015910 -0.009567
v -0.034568 -0.023098 -0.009567
v -0.029398 -0.029398 -0.009567
v -0.023098 -0.034568 -0.009567
v -0.015910 -0.038410 -0.009567
v -0.008111 -0.040776 -0.009567
v -0.000000 -0.041575 -0.009567
v 0.008111 -0.040776 -0.009567
v 0.015910 -0.038410 -0.009567
v 0.023098 -0.034568 -0.009567
v 0.029398 -0.029398 -0.009567
v 0.034568 -0.023098 -0.009567
v 0.038410 -0.015910 -0.009567
v 0.040776 -0.008111 -0.009567
v 0.039686 0.000000 -0.011785
v 0.038924 0.007742 -0.011785
v 0.036666 0.015187 -0.011785
v 0.032998 0.022049 -0.011785
v 0.028063 0.028063 -0.011785
v 0.022049 0.032998 -0.011785
v 0.015187 0.036666 -0.011785
v 0.007742 0.038924 -0.011785
v 0.000000 0.039686 -0.011785
v -0.007742 0.038924 -0.011785
v -0.015187 0.036666 -0.011785
v -0.022049 0.032998 -0.011785
v -0.028063 0.028063 -0.011785
v -0.032998 0.022049 -0.011785
v -0.036666 0.015187 -0.011785
v -0.038924 0.007742 -0.011785
v -0.039686 0.000000 -0.011785
v -0.038924 -0.007742 -0.011785
v -0.036666 -0.015187 -0.011785
v -0.032998 -0.022049 -0.011785
v -0.028063 -0.028063 -0.011785
v -0.022049 -0.032998 -0.011785
v -0.015187 -0.036666 -0.011785
v -0.007742 -0.038924 -0.011785
v -0.000000 -0.039686 -0.011785
v 0.007742 -0.038924 -0.011785
v 0.015187 -0.036666 -0.011785
v 0.022049 -0.032998 -0.011785
v 0.028063 -0.028063 -0.011785
v 0.032998 -0.022049 -0.011785
v 0.036666 -0.015187 -0.011785
v 0.038924 -0.007742 -0.011785
v 0.037416 0.000000 -0.013889
v 0.036697 0.007300 -0.013889
v 0.034568 0.014319 -0.013889
v 0.031110 0.020787 -0.013889
v 0.026457 0.026457 -0.013889
v 0.020787 0.031110 -0.013889
v 0.014319 0.034568 -0.013889
v 0.007300 0.036697 -0.013889
v 0.000000 0.037416 -0.013889
v -0.007300 0.036697 -0.013889
v -0.014319 0.034568 -0.013889
v -0.020787 0.031110 -0.013889
v -0.026457 0.026457 -0.013889
v -0.031110 0.020787 -0.013889
v -0.034568 0.014319 -0.013889
v -0.036697 0.007300 -0.013889
v -0.037416 0.000000 -0.013889
v -0.036697 -0.007300 -0.013889
v -0.034568 -0.014319 -0.013889
v -0.031110 -0.020787 -0.013889
v -0.026457 -0.026457 -0.013889
v -0.020787 -0.031110 -0.013889
v -0.014319 -0.034568 -0.013889
v -0.007300 -0.036697 -0.013889
v -0.000000 -0.037416 -0.013889
v 0.007300 -0.036697 -0.013889
v 0.014319 -0.034568 -0.013889
v 0.020787 -0.031110 -0.013889
v 0.026457 -0.026457 -0.013889
v 0.031110 -0.020787 -0.013889
v 0.034568 -0.014319 -0.013889
v 0.036697 -0.007300 -0.013889
v 0.034785 0.000000 -0.015860
v 0.034117 0.006786 -0.015860
v 0.032138 0.013312 -0.015860
v 0.028923 0.019326 -0.015860
v 0.024597 0.024597 -0.015860
v 0.019326 0.028923 -0.015860
v 0.013312 0.032138 -0.015860
v 0.006786 0.034117 -0.015860
v 0.000000 0.034785 -0.015860
v -0.006786 0.034117 -0.015860
v -0.013312 0.032138 -0.015860
v -0.019326 0.028923 -0.015860
v -0.024597 0.024597 -0.015860
v -0.028923 0.019326 -0.015860
v -0.032138 0.013312 -0.015860
v -0.034117 0.006786 -0.015860
v -0.034785 0.000000 -0.015860
v -0.034117 -0.006786 -0.015860
v -0.032138 -0.013312 -0.015860
v -0.028923 -0.019326 -0.015860
v -0.024597 -0.024597 -0.015860
v -0.019326 -0.028923 -0.015860
v -0.013312 -0.032138 -0.015860
v -0.006786 -0.034117 -0.015860
v -0.000000 -0.034785 -0.015860
v 0.006786 -0.034117 -0.015860
v 0.013312 -0.032138 -0.015860
v 0.019326 -0.028923 -0.015860
v 0.024597 -0.024597 -0.015860
v 0.028923 -0.019326 -0.015860
v 0.032138 -0.013312 -0.015860
v 0.034117 -0.006786 -0.015860
v 0.031820 0.000000 -0.017678
v 0.031208 0.006208 -0.017678
v 0.029398 0.012177 -0.017678
v 0.026457 0.017678 -0.017678
v 0.022500 0.022500 -0.017678
v 0.017678 0.026457 -0.017678
v 0.012177 0.029398 -0.017678
v 0.006208 0.031208 -0.017678
v 0.000000 0.031820 -0.017678
v -0.006208 0.031208 -0.017678
v -0.012177 0.029398 -0.017678
v -0.017678 0.026457 -0.017678
v -0.022500 0.022500 -0.017678
v -0.026457 0.017678 -0.017678
v -0.029398 0.012177 -0.017678
v -0.031208 0.006208 -0.017678
v -0.031820 0.000000 -0.017678
v -0.031208 -0.006208 -0.017678
v -0.029398 -0.012177 -0.017678
v -0.026457 -0.017678 -0.017678
v -0.022500 -0.022500 -0.017678
v -0.017678 -0.026457 -0.017678
v -0.012177 -0.029398 -0.017678
v -0.006208 -0.031208 -0.017678
v -0.000000 -0.031820 -0.017678
v 0.006208 -0.031208 -0.017678
v 0.012177 -0.029398 -0.017678
v 0.017678 -0.026457 -0.017678
v 0.022500 -0.022500 -0.017678
v 0.026457 -0.017678 -0.017678
v 0.029398 -0.012177 -0.017678
v 0.031208 -0.006208 -0.017678
v 0.028548 0.000000 -0.019325
v 0.027999 0.005569 -0.019325
v 0.026375 0.010925 -0.019325
v 0.023737 0.015860 -0.019325
v 0.020186 0.020186 -0.019325
v 0.015860 0.023737 -0.019325
v 0.010925 0.026375 -0.019325
v 0.005569 0.027999 -0.019325
v 0.000000 0.028548 -0.019325
v -0.005569 0.027999 -0.019325
v -0.010925 0.026375 -0.019325
v -0.015860 0.023737 -0.019325
v -0.020186 0.020186 -0.019325
v -0.023737 0.015860 -0.019325
v -0.026375 0.010925 -0.019325
v -0.027999 0.005569 -0.019325
v -0.028548 0.000000 -0.019325
v -0.027999 -0.005569 -0.019325
v -0.026375 -0.010925 -0.019325
v -0.023737 -0.015860 -0.019325
v -0.020186 -0.020186 -0.019325
v -0.015860 -0.023737 -0.019325
v -0.010925 -0.026375 -0.019325
v -0.005569 -0.027999 -0.019325
v -0.000000 -0.028548 -0.019325
v 0.005569 -0.027999 -0.019325
v 0.010925 -0.026375 -0.019325
v 0.015860 -0.023737 -0.019325
v 0.020186 -0.020186 -0.019325
v 0.023737 -0.015860 -0.019325
v 0.026375 -0.010925 -0.019325
v 0.027999 -0.005569 -0.019325
v 0.025001 0.000000 -0.020787
v 0.024520 0.004877 -0.020787
v 0.023098 0.009567 -0.020787
v 0.020787 0.013890 -0.020787
v 0.017678 0.017678 -0.020787
v 0.013890 0.020787 -0.020787
v 0.009567 0.023098 -0.020787
v 0.004877 0.024520 -0.020787
v 0.000000 0.025001 -0.020787
v -0.004877 0.024520 -0.020787
v -0.009567 0.023098 -0.020787
v -0.013890 0.020787 -0.020787
v -0.017678 0.017678 -0.020787
v -0.020787 0.013890 -0.020787
v -0.023098 0.009567 -0.020787
v -0.024520 0.004877 -0.020787
v -0.025001 0.000000 -0.020787
v -0.024520 -0.004877 -0.020787
v -0.023098 -0.009567 -0.020787
v -0.020787 -0.013890 -0.020787
v -0.017678 -0.017678 -0.020787
v -0.013890 -0.020787 -0.020787
v -0.009567 -0.023098 -0.020787
v -0.004877 -0.024520 -0.020787
v -0.000000 -0.025001 -0.020787
v 0.004877 -0.024520 -0.020787
v 0.009567 -0.023098 -0.020787
v 0.013890 -0.020787 -0.020787
v 0.017678 -0.017678 -0.020787
v 0.020787 -0.013890 -0.020787
v 0.023098 -0.009567 -0.020787
v 0.024520 -0.004877 -0.020787
v 0.021213 0.000000 -0.022048
v 0.020805 0.004138 -0.022048
v 0.019598 0.008118 -0.022048
v 0.017638 0.011785 -0.022048
v 0.015000 0.015000 -0.022048
v 0.011785 0.017638 -0.022048
v 0.008118 0.019598 -0.022048
v 0.004138 0.020805 -0.022048
v 0.000000 0.021213 -0.022048
v -0.004138 0.020805 -0.022048
v -0.008118 0.019598 -0.022048
v -0.011785 0.017638 -0.022048
v -0.015000 0.015000 -0.022048
v -0.017638 0.011785 -0.022048
v -0.019598 0.008118 -0.022048
v -0.020805 0.004138 -0.022048
v -0.021213 0.000000 -0.022048
v -0.020805 -0.004138 -0.022048
v -0.019598 -0.008118 -0.022048
v -0.017638 -0.011785 -0.022048
v -0.015000 -0.015000 -0.022048
v -0.011785 -0.017638 -0.022048
v -0.008118 -0.019598 -0.022048
v -0.004138 -0.020805 -0.022048
v -0.000000 -0.021213 -0.022048
v 0.004138 -0.020805 -0.022048
v 0.008118 -0.019598 -0.022048
v 0.011785 -0.017638 -0.022048
v 0.015000 -0.015000 -0.022048
v 0.017638 -0.011785 -0.022048
v 0.019598 -0.008118 -0.022048
v 0.020805 -0.004138 -0.022048
v 0.017221 0.000000 -0.023097
v 0.016890 0.003360 -0.023097
v 0.015910 0.006590 -0.023097
v 0.014319 0.009567 -0.023097
v 0.012177 0.012177 -0.023097
v 0.009567 0.014319 -0.023097
v 0.006590 0.015910 -0.023097
v 0.003360 0.016890 -0.023097
v 0.000000 0.017221 -0.023097
v -0.003360 0.016890 -0.023097
v -0.006590 0.015910 -0.023097
v -0.009567 0.014319 -0.023097
v -0.012177 0.012177 -0.023097
v -0.014319 0.009567 -0.023097
v -0.015910 0.006590 -0.023097
v -0.016890 0.003360 -0.023097
v -0.017221 0.000000 -0.023097
v -0.016890 -0.003360 -0.023097
v -0.015910 -0.006590 -0.023097
v -0.014319 -0.009567 -0.023097
v -0.012177 -0.012177 -0.023097
v -0.009567 -0.014319 -0.023097
v -0.006590 -0.015910 -0.023097
v -0.003360 -0.016890 -0.023097
v -0.000000 -0.017221 -0.023097
v 0.003360 -0.016890 -0.023097
v 0.006590 -0.015910 -0.023097
v 0.009567 -0.014319 -0.023097
v 0.012177 -0.012177 -0.023097
v 0.014319 -0.009567 -0.023097
v 0.015910 -0.006590 -0.023097
v 0.016890 -0.003360 -0.023097
v 0.013063 0.000000 -0.023924
v 0.012812 0.002548 -0.023924
v 0.012068 0.004999 -0.023924
v 0.010861 0.007257 -0.023924
v 0.009237 0.009237 -0.023924
v 0.007257 0.010861 -0.023924
v 0.004999 0.012068 -0.023924
v 0.002548 0.012812 -0.023924
v 0.000000 0.013063 -0.023924
v -0.002548 0.012812 -0.023924
v -0.004999 0.012068 -0.023924
v -0.007257 0.010861 -0.023924
v -0.009237 0.009237 -0.023924
v -0.010861 0.007257 -0.023924
v -0.012068 0.004999 -0.023924
v -0.012812 0.002548 -0.023924
v -0.013063 0.000000 -0.023924
v -0.012812 -0.002548 -0.023924
v -0.012068 -0.004999 -0.023924
v -0.010861 -0.007257 -0.023924
v -0.009237 -0.009237 -0.023924
v -0.007257 -0.010861 -0.023924
v -0.004999 -0.012068 -0.023924
v -0.002548 -0.012812 -0.023924
v -0.000000 -0.013063 -0.023924
v 0.002548 -0.012812 -0.023924
v 0.004999 -0.012068 -0.023924
v 0.007257 -0.010861 -0.023924
v 0.009237 -0.009237 -0.023924
v 0.010861 -0.007257 -0.023924
v 0.012068 -0.004999 -0.023924
v 0.012812 -0.002548 -0.023924
v 0.008779 0.000000 -0.024520
v 0.008610 0.001713 -0.024520
v 0.008111 0.003360 -0.024520
v 0.007300 0.004877 -0.024520
v 0.006208 0.006208 -0.024520
v 0.004877 0.007300 -0.024520
v 0.003360 0.008111 -0.024520
v 0.001713 0.008610 -0.024520
v 0.000000 0.008779 -0.024520
v -0.001713 0.008610 -0.024520
v -0.003360 0.008111 -0.024520
v -0.004877 0.007300 -0.024520
v -0.006208 0.006208 -0.024520
v -0.007300 0.004877 -0.024520
v -0.008111 0.003360 -0.024520
v -0.008610 0.001713 -0.024520
v -0.008779 0.000000 -0.024520
v -0.008610 -0.001713 -0.024520
v -0.008111 -0.003360 -0.024520
v -0.007300 -0.004877 -0.024520
v -0.006208 -0.006208 -0.024520
v -0.004877 -0.007300 -0.024520
v -0.003360 -0.008111 -0.024520
v -0.001713 -0.008610 -0.024520
v -0.000000 -0.008779 -0.024520
v 0.001713 -0.008610 -0.024520
v 0.003360 -0.008111 -0.024520
v 0.004877 -0.007300 -0.024520
v 0.006208 -0.006208 -0.024520
v 0.007300 -0.004877 -0.024520
v 0.008111 -0.003360 -0.024520
v 0.008610 -0.001713 -0.024520
v 0.004411 0.000000 -0.024880
v 0.004326 0.000860 -0.024880
v 0.004075 0.001688 -0.024880
v 0.003667 0.002450 -0.024880
v 0.003119 0.003119 -0.024880
v 0.002450 0.003667 -0.024880
v 0.001688 0.004075 -0.024880
v 0.000860 0.004326 -0.024880
v 0.000000 0.004411 -0.024880
v -0.000860 0.004326 -0.024880
v -0.001688 0.004075 -0.024880
v -0.002450 0.003667 -0.024880
v -0.003119 0.003119 -0.024880
v -0.003667 0.002450 -0.024880
v -0.004075 0.001688 -0.024880
v -0.004326 0.000860 -0.024880
v -0.004411 0.000000 -0.024880
v -0.004326 -0.000860 -0.024880
v -0.004075 -0.001688 -0.024880
v -0.003667 -0.002450 -0.024880
v -0.003119 -0.003119 -0.024880
v -0.002450 -0.003667 -0.024880
v -0.001688 -0.004075 -0.024880
v -0.000860 -0.004326 -0.024880
v -0.000000 -0.004411 -0.024880
v 0.000860 -0.004326 -0.024880
v 0.001688 -0.004075 -0.024880
v 0.002450 -0.003667 -0.024880
v 0.003119 -0.003119 -0.024880
v 0.003667 -0.002450 -0.024880
v 0.004075 -0.001688 -0.024880
v 0.004326 -0.000860 -0.024880
v 0.000000 0.000000 -0.025000
v 0.000000 0.000000 -0.025000
v 0.000000 0.000000 -0.025000
v 0.000000 0.000000 -0.025000
v 0.000000 0.000000 -0.025000
v 0.000000 0.000000 -0.025000
v 0.000000 0.000000 -0.025000
v 0.000000 0.000000 -0.025000
v 0.000000 0.000000 -0.025000
v -0.000000 0.000000 -0.025000
v -0.000000 0.000000 -0.025000
v -0.000000 0.000000 -0.025000
v -0.000000 0.000000 -0.025000
v -0.000000 0.000000 -0.025000
v -0.000000 0.000000 -0.025000
v -0.000000 0.000000 -0.025000
v -0.000000 0.000000 -0.025000
v -0.000000 -0.000000 -0.025000
v -0.000000 -0.000000 -0.025000
v -0.000000 -0.000000 -0.025000
v -0.000000 -0.000000 -0.025000
v -0.000000 -0.000000 -0.025000
v -0.000000 -0.000000 -0.025000
v -0.000000 -0.000000 -0.025000
v -0.000000 -0.000000 -0.025000
v 0.000000 -0.000000 -0.025000
v 0.000000 -0.000000 -0.025000
v 0.000000 -0.000000 -0.025000
v 0.000000 -0.000000 -0.025000
v 0.000000 -0.000000 -0.025000
v 0.000000 -0.000000 -0.025000
v 0.000000 -0.000000 -0.025000
f 1 34 2
f 1 33 34
f 2 35 3
f 2 34 35
f 3 36 4
f 3 35 36
f 4 37 5
f 4 36 37
f 5 38 6
f 5 37 38
f 6 39 7
f 6 38 39
f 7 40 8
f 7 39 40
f 8 41 9
f 8 40 41
f 9 42 10
f 9 41 42
f 10 43 11
f 10 42 43
f 11 44 12
f 11 43 44
f 12 45 13
f 12 44 45
f 13 46 14
f 13 45 46
f 14 47 15
f 14 46 47
f 15 48 16
f 15 47 48
f 16 49 17
f 16 48 49
f 17 50 18
f 17 49 50
f 18 51 19
f 18 50 51
f 19 52 20
f 19 51 52
f 20 53 21
f 20 52 53
f 21 54 22
f 21 53 54
f 22 55 23
f 22 54 55
f 23 56 24
f 23 55 56
f 24 57 25
f 24 56 57
f 25 58 26
f 25 57 58
f 26 59 27
f 26 58 59
f 27 60 28
f 27 59 60
f 28 61 29
f 28 60 61
f 29 62 30
f 29 61 62
f 30 63 31
f 30 62 63
f 31 64 32
f 31 63 64
f 32 33 1
f 32 64 33
f 33 66 34
f 33 65 66
f 34 67 35
f 34 66 67
f 35 68 36
f 35 67 68
f 36 69 37
f 36 68 69
f 37 70 38
f 37 69 70
f 38 71 39
f 38 70 71
f 39 72 40
f 39 71 72
f 40 73 41
f 40 72 73
f 41 74 42
f 41 73 74
f 42 75 43
f 42 74 75
f 43 76 44
f 43 75 76
f 44 77 45
f 44 76 77
f 45 78 46
f 45 77 78
f 46 79 47
f 46 78 79
f 47 80 48
f 47 79 80
f 48 81 49
f 48 80 81
f 49 82 50
f 49 81 82
f 50 83 51
f 50 82 83
f 51 84 52
f 51 83 84
f 52 85 53
f 52 84 85
f 53 86 54
f 53 85 86
f 54 87 55
f 54 86 87
f 55 88 56
f 55 87 88
f 56 89 57
f 56 88 89
f 57 90 58
f 57 89 90
f 58 91 59
f 58 90 91
f 59 92 60
f 59 91 92
f 60 93 61
f 60 92 93
f 61 94 62
f 61 93 94
f 62 95 63
f 62 94 95
f 63 96 64
f 63 95 96
f 64 65 33
f 64 96 65
f 65 98 66
f 65 97 98
f 66 99 67
f 66 98 99
f 67 100 68
f 67 99 100
f 68 101 69
f 68 100 101
f 69 102 70
f 69 101 102
f 70 103 71
f 70 102 103
f 71 104 72
f 71 103 104
f 72 105 73
f 72 104 105
f 73 106 74
f 73 105 106
f 74 107 75
f 74 106 107
f 75 108 76
f 75 107 108
f 76 109 77
f 76 108 109
f 77 110 78
f 77 109 110
f 78 111 79
f 78 110 111
f 79 112 80
f 79 111 112
f 80 113 81
f 80 112 113
f 81 114 82
f 81 113 114
f 82 115 83
f 82 114 115
f 83 116 84
f 83 115 116
f 84 117 85
f 84 116 117
f 85 118 86
f 85 117 118
f 86 119 87
f 86 118 119
f 87 120 88
f 87 119 120
f 88 121 89
f 88 120 121
f 89 122 90
f 89 121 122
f 90 123 91
f 90 122 123
f 91 124 92
f 91 123 124
f 92 125 93
f 92 124 125
f 93 126 94
f 93 125 126
f 94 127 95
f 94 126 127
f 95 128 96
f 95 127 128
f 96 97 65
f 96 128 97
f 97 130 98
f 97 129 130
f 98 131 99
f 98 130 131
f 99 132 100
f 99 131 132
f 100 133 101
f 100 132 133
f 101 134 102
f 101 133 134
f 102 135 103
f 102 134 135
f 103 136 104
f 103 135 136
f 104 137 105
f 104 136 137
f 105 138 106
f 105 137 138
f 106 139 107
f 106 138 139
f 107 140 108
f 107 139 140
f 108 141 109
f 108 140 141
f 109 142 110
f 109 141 142
f 110 143 111
f 110 142 143
f 111 144 112
f 111 143 144
f 112 145 113
f 112 144 145
f 113 146 114
f 113 145 146
f 114 147 115
f 114 146 147
f 115 148 116
f 115 147 148
f 116 149 117
f 116 148 149
f 117 150 118
f 117 149 150
f 118 151 119
f 118 150 151
f 119 152 120
f 119 151 152
f 120 153 121
f 120 152 153
f 121 154 122
f 121 153 154
f 122 155 123
f 122 154 155
f 123 156 124
f 123 155 156
f 124 157 125
f 124 156 157
f 125 158 126
f 125 157 158
f 126 159 127
f 126 158 159
f 127 160 128
f 127 159 160
f 128 129 97
f 128 160 129
f 129 162 130
f 129 161 162
f 130 163 131
f 130 162 163
f 131 164 132
f 131 163 164
f 132 165 133
f 132 164 165
f 133 166 134
f 133 165 166
f 134 167 135
f 134 166 167
f 135 168 136
f 135 167 168
f 136 169 137
f 136 168 169
f 137 170 138
f 137 169 170
f 138 171 139
f 138 170 171
f 139 172 140
f 139 171 172
f 140 173 141
f 140 172 173
f 141 174 142
f 141 173 174
f 142 175 143
f 142 174 175
f 143 176 144
f 143 175 176
f 144 177 145
f 144 176 177
f 145 178 146
f 145 177 178
f 146 179 147
f 146 178 179
f 147 180 148
f 147 179 180
f 148 181 149
f 148 180 181
f 149 182 150
f 149 181 182
f 150 183 151
f 150 182 183
f 151 184 152
f 151 183 184
f 152 185 153
f 152 184 185
f 153 186 154
f 153 185 186
f 154 187 155
f 154 186 187
f 155 188 156
f 155 187 188
f 156 189 157
f 156 188 189
f 157 190 158
f 157 189 190
f 158 191 159
f 158 190 191
f 159 192 160
f 159 191 192
f 160 161 129
f 160 192 161
f 161 194 162
f 161 193 194
f 162 195 163
f 162 194 195
f 163 196 164
f 163 195 196
f 164 197 165
f 164 196 197
f 165 198 166
f 165 197 198
f 166 199 167
f 166 198 199
f 167 200 168
f 167 199 200
f 168 201 169
f 168 200 201
f 169 202 170
f 169 201 202
f 170 203 171
f 170 202 203
f 171 204 172
f 171 203 204
f 172 205 173
f 172 204 205
f 173 206 174
f 173 205 206
f 174 207 175
f 174 206 207
f 175 208 176
f 175 207 208
f 176 209 177
f 176 208 209
f 177 210 178
f 177 209 210
f 178 211 179
f 178 210 211
f 179 212 180
f 179 211 212
f 180 213 181
f 180 212 213
f 181 214 182
f 181 213 214
f 182 215 183
f 182 214 215
f 183 216 184
f 183 215 216
f 184 217 185
f 184 216 217
f 185 218 186
f 185 217 218
f 186 219 187
f 186 218 219
f 187 220 188
f 187 219 220
f 188 221 189
f 188 220 221
f 189 222 190
f 189 221 222
f 190 223 191
f 190 222 223
f 191 224 192
f 191 223 224
f 192 193 161
f 192 224 193
f 193 226 194
f 193 225 226
f 194 227 195
f 194 226 227
f 195 228 196
f 195 227 228
f 196 229 197
f 196 228 229
f 197 230 198
f 197 229 230
f 198 231 199
f 198 230 231
f 199 232 200
f 199 231 232
f 200 233 201
f 200 232 233
f 201 234 202
f 201 233 234
f 202 235 203
f 202 234 235
f 203 236 204
f 203 235 236
f 204 237 205
f 204 236 237
f 205 238 206
f 205 237 238
f 206 239 207
f 206 238 239
f 207 240 208
f 207 239 240
f 208 241 209
f 208 240 241
f 209 242 210
f 209 241 242
f 210 243 211
f 210 242 243
f 211 244 212
f 211 243 244
f 212 245 213
f 212 244 245
f 213 246 214
f 213 245 246
f 214 247 215
f 214 246 247
f 215 248 216
f 215 247 248
f 216 249 217
f 216 248 249
f 217 250 218
f 217 249 250
f 218 251 219
f 218 250 251
f 219 252 220
f 219 251 252
f 220 253 221
f 220 252 253
f 221 254 222
f 221 253 254
f 222 255 223
f 222 254 255
f 223 256 224
f 223 255 256
f 224 225 193
f 224 256 225
f 225 258 226
f 225 257 258
f 226 259 227
f 226 258 259
f 227 260 228
f 227 259 260
f 228 261 229
f 228 260 261
f 229 262 230
f 229 261 262
f 230 263 231
f 230 262 263
f 231 264 232
f 231 263 264
f 232 265 233
f 232 264 265
f 233 266 234
f 233 265 266
f 234 267 235
f 234 266 267
f 235 268 236
f 235 267 268
f 236 269 237
f 236 268 269
f 237 270 238
f 237 269 270
f 238 271 239
f 238 270 271
f 239 272 240
f 239 271 272
f 240 273 241
f 240 272 273
f 241 274 242
f 241 273 274
f 242 275 243
f 242 274 275
f 243 276 244
f 243 275 276
f 244 277 245
f 244 276 277
f 245 278 246
f 245 277 278
f 246 279 247
f 246 278 279
f 247 280 248
f 247 279 280
f 248 281 249
f 248 280 281
f 249 282 250
f 249 281 282
f 250 283 251
f 250 282 283
f 251 284 252
f 251 283 284
f 252 285 253
f 252 284 285
f 253 286 254
f 253 285 286
f 254 287 255
f 254 286 287
f 255 288 256
f 255 287 288
f 256 257 225
f 256 288 257
f 257 290 258
f 257 289 290
f 258 291 259
f 258 290 291
f 259 292 260
f 259 291 292
f 260 293 261
f 260 292 293
f 261 294 262
f 261 293 294
f 262 295 263
f 262 294 295
f 263 296 264
f 263 295 296
f 264 297 265
f 264 296 297
f 265 298 266
f 265 297 298
f 266 299 267
f 266 298 299
f 267 300 268
f 267 299 300
f 268 301 269
f 268 300 301
f 269 302 270
f 269 301 302
f 270 303 271
f 270 302 303
f 271 304 272
f 271 303 304
f 272 305 273
f 272 304 305
f 273 306 274
f 273 305 306
f 274 307 275
f 274 306 307
f 275 308 276
f 275 307 308
f 276 309 277
f 276 308 309
f 277 310 278
f 277 309 310
f 278 311 279
f 278 310 311
f 279 312 280
f 279 311 312
f 280 313 281
f 280 312 313
f 281 314 282
f 281 313 314
f 282 315 283
f 282 314 315
f 283 316 284
f 283 315 316
f 284 317 285
f 284 316 317
f 285 318 286
f 285 317 318
f 286 319 287
f 286 318 319
f 287 320 288
f 287 319 320
f 288 289 257
f 288 320 289
f 289 322 290
f 289 321 322
f 290 323 291
f 290 322 323
f 291 324 292
f 291 323 324
f 292 325 293
f 292 324 325
f 293 326 294
f 293 325 326
f 294 327 295
f 294 326 327
f 295 328 296
f 295 327 328
f 296 329 297
f 296 328 329
f 297 330 298
f 297 329 330
f 298 331 299
f 298 330 331
f 299 332 300
f 299 331 332
f 300 333 301
f 300 332 333
f 301 334 302
f 301 333 334
f 302 335 303
f 302 334 335
f 303 336 304
f 303 335 336
f 304 337 305
f 304 336 337
f 305 338 306
f 305 337 338
f 306 339 307
f 306 338 339
f 307 340 308
f 307 339 340
f 308 341 309
f 308 340 341
f 309 342 310
f 309 341 342
f 310 343 311
f 310 342 343
f 311 344 312
f 311 343 344
f 312 345 313
f 312 344 345
f 313 346 314
f 313 345 346
f 314 347 315
f 314 346 347
f 315 348 316
f 315 347 348
f 316 349 317
f 316 348 349
f 317 350 318
f 317 349 350
f 318 351 319
f 318 350 351
f 319 352 320
f 319 351 352
f 320 321 289
f 320 352 321
f 321 354 322
f 321 353 354
f 322 355 323
f 322 354 355
f 323 356 324
f 323 355 356
f 324 357 325
f 324 356 357
f 325 358 326
f 325 357 358
f 326 359 327
f 326 358 359
f 327 360 328
f 327 359 360
f 328 361 329
f 328 360 361
f 329 362 330
f 329 361 362
f 330 363 331
f 330 362 363
f 331 364 332
f 331 363 364
f 332 365 333
f 332 364 365
f 333 366 334
f 333 365 366
f 334 367 335
f 334 366 367
f 335 368 336
f 335 367 368
f 336 369 337
f 336 368 369
f 337 370 338
f 337 369 370
f 338 371 339
f 338 370 371
f 339 372 340
f 339 371 372
f 340 373 341
f 340 372 373
f 341 374 342
f 341 373 374
f 342 375 343
f 342 374 375
f 343 376 344
f 343 375 376
f 344 377 345
f 344 376 377
f 345 378 346
f 345 377 378
f 346 379 347
f 346 378 379
f 347 380 348
f 347 379 380
f 348 381 349
f 348 380 381
f 349 382 350
f 349 381 382
f 350 383 351
f 350 382 383
f 351 384 352
f 351 383 384
f 352 353 321
f 352 384 353
f 353 386 354
f 353 385 386
f 354 387 355
f 354 386 387
f 355 388 356
f 355 387 388
f 356 389 357
f 356 388 389
f 357 390 358
f 357 389 390
f 358 391 359
f 358 390 391
f 359 392 360
f 359 391 392
f 360 393 361
f 360 392 393
f 361 394 362
f 361 393 394
f 362 395 363
f 362 394 395
f 363 396 364
f 363 395 396
f 364 397 365
f 364 396 397
f 365 398 366
f 365 397 398
f 366 399 367
f 366 398 399
f 367 400 368
f 367 399 400
f 368 401 369
f 368 400 401
f 369 402 370
f 369 401 402
f 370 403 371
f 370 402 403
f 371 404 372
f 371 403 404
f 372 405 373
f 372 404 405
f 373 406 374
f 373 405 406
f 374 407 375
f 374 406 407
f 375 408 376
f 375 407 408
f 376 409 377
f 376 408 409
f 377 410 378
f 377 409 410
f 378 411 379
f 378 410 411
f 379 412 380
f 379 411 412
f 380 413 381
f 380 412 413
f 381 414 382
f 381 413 414
f 382 415 383
f 382 414 415
f 383 416 384
f 383 415 416
f 384 385 353
f 384 416 385
f 385 418 386
f 385 417 418
f 386 419 387
f 386 418 419
f 387 420 388
f 387 419 420
f 388 421 389
f 388 420 421
f 389 422 390
f 389 421 422
f 390 423 391
f 390 422 423
f 391 424 392
f 391 423 424
f 392 425 393
f 392 424 425
f 393 426 394
f 393 425 426
f 394 427 395
f 394 426 427
f 395 428 396
f 395 427 428
f 396 429 397
f 396 428 429
f 397 430 398
f 397 429 430
f 398 431 399
f 398 430 431
f 399 432 400
f 399 431 432
f 400 433 401
f 400 432 433
f 401 434 402
f 401 433 434
f 402 435 403
f 402 434 435
f 403 436 404
f 403 435 436
f 404 437 405
f 404 436 437
f 405 438 406
f 405 437 438
f 406 439 407
f 406 438 439
f 407 440 408
f 407 439 440
f 408 441 409
f 408 440 441
f 409 442 410
f 409 441 442
f 410 443 411
f 410 442 443
f 411 444 412
f 411 443 444
f 412 445 413
f 412 444 445
f 413 446 414
f 413 445 446
f 414 447 415
f 414 446 447
f 415 448 416
f 415 447 448
f 416 417 385
f 416 448 417
f 417 450 418
f 417 449 450
f 418 451 419
f 418 450 451
f 419 452 420
f 419 451 452
f 420 453 421
f 420 452 453
f 421 454 422
f 421 453 454
f 422 455 423
f 422 454 455
f 423 456 424
f 423 455 456
f 424 457 425
f 424 456 457
f 425 458 426
f 425 457 458
f 426 459 427
f 426 458 459
f 427 460 428
f 427 459 460
f 428 461 429
f 428 460 461
f 429 462 430
f 429 461 462
f 430 463 431
f 430 462 463
f 431 464 432
f 431 463 464
f 432 465 433
f 432 464 465
f 433 466 434
f 433 465 466
f 434 467 435
f 434 466 467
f 435 468 436
f 435 467 468
f 436 469 437
f 436 468 469
f 437 470 438
f 437 469 470
f 438 471 439
f 438 470 471
f 439 472 440
f 439 471 472
f 440 473 441
f 440 472 473
f 441 474 442
f 441 473 474
f 442 475 443
f 442 474 475
f 443 476 444
f 443 475 476
f 444 477 445
f 444 476 477
f 445 478 446
f 445 477 478
f 446 479 447
f 446 478 479
f 447 480 448
f 447 479 480
f 448 449 417
f 448 480 449
f 449 482 450
f 449 481 482
f 450 483 451
f 450 482 483
f 451 484 452
f 451 483 484
f 452 485 453
f 452 484 485
f 453 486 454
f 453 485 486
f 454 487 455
f 454 486 487
f 455 488 456
f 455 487 488
f 456 489 457
f 456 488 489
f 457 490 458
f 457 489 490
f 458 491 459
f 458 490 491
f 459 492 460
f 459 491 492
f 460 493 461
f 460 492 493
f 461 494 462
f 461 493 494
f 462 495 463
f 462 494 495
f 463 496 464
f 463 495 496
f 464 497 465
f 464 496 497
f 465 498 466
f 465 497 498
f 466 499 467
f 466 498 499
f 467 500 468
f 467 499 500
f 468 501 469
f 468 500 501
f 469 502 470
f 469 501 502
f 470 503 471
f 470 502 503
f 471 504 472
f 471 503 504
f 472 505 473
f 472 504 505
f 473 506 474
f 473 505 506
f 474 507 475
f 474 506 507
f 475 508 476
f 475 507 508
f 476 509 477
f 476 508 509
f 477 510 478
f 477 509 510
f 478 511 479
f 478 510 511
f 479 512 480
f 479 511 512
f 480 481 449
f 480 512 481
f 481 514 482
f 481 513 514
f 482 515 483
f 482 514 515
f 483 516 484
f 483 515 516
f 484 517 485
f 484 516 517
f 485 518 486
f 485 517 518
f 486 519 487
f 486 518 519
f 487 520 488
f 487 519 520
f 488 521 489
f 488 520 521
f 489 522 490
f 489 521 522
f 490 523 491
f 490 522 523
f 491 524 492
f 491 523 524
f 492 525 493
f 492 524 525
f 493 526 494
f 493 525 526
f 494 527 495
f 494 526 527
f 495 528 496
f 495 527 528
f 496 529 497
f 496 528 529
f 497 530 498
f 497 529 530
f 498 531 499
f 498 530 531
f 499 532 500
f 499 531 532
f 500 533 501
f 500 532 533
f 501 534 502
f 501 533 534
f 502 535 503
f 502 534 535
f 503 536 504
f 503 535 536
f 504 537 505
f 504 536 537
f 505 538 506
f 505 537 538
f 506 539 507
f 506 538 539
f 507 540 508
f 507 539 540
f 508 541 509
f 508 540 541
f 509 542 510
f 509 541 542
f 510 543 511
f 510 542 543
f 511 544 512
f 511 543 544
f 512 513 481
f 512 544 513
f 545 546 578
f 545 578 577
f 546 547 579
f 546 579 578
f 547 548 580
f 547 580 579
f 548 549 581
f 548 581 580
f 549 550 582
f 549 582 581
f 550 551 583
f 550 583 582
f 551 552 584
f 551 584 583
f 552 553 585
f 552 585 584
f 553 554 586
f 553 586 585
f 554 555 587
f 554 587 586
f 555 556 588
f 555 588 587
f 556 557 589
f 556 589 588
f 557 558 590
f 557 590 589
f 558 559 591
f 558 591 590
f 559 560 592
f 559 592 591
f 560 561 593
f 560 593 592
f 561 562 594
f 561 594 593
f 562 563 595
f 562 595 594
f 563 564 596
f 563 596 595
f 564 565 597
f 564 597 596
f 565 566 598
f 565 598 597
f 566 567 599
f 566 599 598
f 567 568 600
f 567 600 599
f 568 569 601
f 568 601 600
f 569 570 602
f 569 602 601
f 570 571 603
f 570 603 602
f 571 572 604
f 571 604 603
f 572 573 605
f 572 605 604
f 573 574 606
f 573 606 605
f 574 575 607
f 574 607 606
f 575 576 608
f 575 608 607
f 576 545 577
f 576 577 608
f 577 578 610
f 577 610 609
f 578 579 611
f 578 611 610
f 579 580 612
f 579 612 611
f 580 581 613
f 580 613 612
f 581 582 614
f 581 614 613
f 582 583 615
f 582 615 614
f 583 584 616
f 583 616 615
f 584 585 617
f 584 617 616
f 585 586 618
f 585 618 617
f 586 587 619
f 586 619 618
f 587 588 620
f 587 620 619
f 588 589 621
f 588 621 620
f 589 590 622
f 589 622 621
f 590 591 623
f 590 623 622
f 591 592 624
f 591 624 623
f 592 593 625
f 592 625 624
f 593 594 626
f 593 626 625
f 594 595 627
f 594 627 626
f 595 596 628
f 595 628 627
f 596 597 629
f 596 629 628
f 597 598 630
f 597 630 629
f 598 599 631
f 598 631 630
f 599 600 632
f 599 632 631
f 600 601 633
f 600 633 632
f 601 602 634
f 601 634 633
f 602 603 635
f 602 635 634
f 603 604 636
f 603 636 635
f 604 605 637
f 604 637 636
f 605 606 638
f 605 638 637
f 606 607 639
f 606 639 638
f 607 608 640
f 607 640 639
f 608 577 609
f 608 609 640
f 609 610 642
f 609 642 641
f 610 611 643
f 610 643 642
f 611 612 644
f 611 644 643
f 612 613 645
f 612 645 644
f 613 614 646
f 613 646 645
f 614 615 647
f 614 647 646
f 615 616 648
f 615 648 647
f 616 617 649
f 616 649 648
f 617 618 650
f 617 650 649
f 618 619 651
f 618 651 650
f 619 620 652
f 619 652 651
f 620 621 653
f 620 653 652
f 621 622 654
f 621 654 653
f 622 623 655
f 622 655 654
f 623 624 656
f 623 656 655
f 624 625 657
f 624 657 656
f 625 626 658
f 625 658 657
f 626 627 659
f 626 659 658
f 627 628 660
f 627 660 659
f 628 629 661
f 628 661 660
f 629 630 662
f 629 662 661
f 630 631 663
f 630 663 662
f 631 632 664
f 631 664 663
f 632 633 665
f 632 665 664
f 633 634 666
f 633 666 665
f 634 635 667
f 634 667 666
f 635 636 668
f 635 668 667
f 636 637 669
f 636 669 668
f 637 638 670
f 637 670 669
f 638 639 671
f 638 671 670
f 639 640 672
f 639 672 671
f 640 609 641
f 640 641 672
f 641 642 674
f 641 674 673
f 642 643 675
f 642 675 674
f 643 644 676
f 643 676 675
f 644 645 677
f 644 677 676
f 645 646 678
f 645 678 677
f 646 647 679
f 646 679 678
f 647 648 680
f 647 680 679
f 648 649 681
f 648 681 680
f 649 650 682
f 649 682 681
f 650 651 683
f 650 683 682
f 651 652 684
f 651 684 683
f 652 653 685
f 652 685 684
f 653 654 686
f 653 686 685
f 654 655 687
f 654 687 686
f 655 656 688
f 655 688 687
f 656 657 689
f 656 689 688
f 657 658 690
f 657 690 689
f 658 659 691
f 658 691 690
f 659 660 692
f 659 692 691
f 660 661 693
f 660 693 692
f 661 662 694
f 661 694 693
f 662 663 695
f 662 695 694
f 663 664 696
f 663 696 695
f 664 665 697
f 664 697 696
f 665 666 698
f 665 698 697
f 666 667 699
f 666 699 698
f 667 668 700
f 667 700 699
f 668 669 701
f 668 701 700
f 669 670 702
f 669 702 701
f 670 671 703
f 670 703 702
f 671 672 704
f 671 704 703
f 672 641 673
f 672 673 704
f 673 674 706
f 673 706 705
f 674 675 707
f 674 707 706
f 675 676 708
f 675 708 707
f 676 677 709
f 676 709 708
f 677 678 710
f 677 710 709
f 678 679 711
f 678 711 710
f 679 680 712
f 679 712 711
f 680 681 713
f 680 713 712
f 681 682 714
f 681 714 713
f 682 683 715
f 682 715 714
f 683 684 716
f 683 716 715
f 684 685 717
f 684 717 716
f 685 686 718
f 685 718 717
f 686 687 719
f 686 719 718
f 687 688 720
f 687 720 719
f 688 689 721
f 688 721 720
f 689 690 722
f 689 722 721
f 690 691 723
f 690 723 722
f 691 692 724
f 691 724 723
f 692 693 725
f 692 725 724
f 693 694 726
f 693 726 725
f 694 695 727
f 694 727 726
f 695 696 728
f 695 728 727
f 696 697 729
f 696 729 728
f 697 698 730
f 697 730 729
f 698 699 731
f 698 731 730
f 699 700 732
f 699 732 731
f 700 701 733
f 700 733 732
f 701 702 734
f 701 734 733
f 702 703 735
f 702 735 734
f 703 704 736
f 703 736 735
f 704 673 705
f 704 705 736
f 705 706 738
f 705 738 737
f 706 707 739
f 706 739 738
f 707 708 740
f 707 740 739
f 708 709 741
f 708 741 740
f 709 710 742
f 709 742 741
f 710 711 743
f 710 743 742
f 711 712 744
f 711 744 743
f 712 713 745
f 712 745 744
f 713 714 746
f 713 746 745
f 714 715 747
f 714 747 746
f 715 716 748
f 715 748 747
f 716 717 749
f 716 749 748
f 717 718 750
f 717 750 749
f 718 719 751
f 718 751 750
f 719 720 752
f 719 752 751
f 720 721 753
f 720 753 752
f 721 722 754
f 721 754 753
f 722 723 755
f 722 755 754
f 723 724 756
f 723 756 755
f 724 725 757
f 724 757 756
f 725 726 758
f 725 758 757
f 726 727 759
f 726 759 758
f 727 728 760
f 727 760 759
f 728 729 761
f 728 761 760
f 729 730 762
f 729 762 761
f 730 731 763
f 730 763 762
f 731 732 764
f 731 764 763
f 732 733 765
f 732 765 764
f 733 734 766
f 733 766 765
f 734 735 767
f 734 767 766
f 735 736 768
f 735 768 767
f 736 705 737
f 736 737 768
f 737 738 770
f 737 770 769
f 738 739 771
f 738 771 770
f 739 740 772
f 739 772 771
f 740 741 773
f 740 773 772
f 741 742 774
f 741 774 773
f 742 743 775
f 742 775 774
f 743 744 776
f 743 776 775
f 744 745 777
f 744 777 776
f 745 746 778
f 745 778 777
f 746 747 779
f 746 779 778
f 747 748 780
f 747 780 779
f 748 749 781
f 748 781 780
f 749 750 782
f 749 782 781
f 750 751 783
f 750 783 782
f 751 752 784
f 751 784 783
f 752 753 785
f 752 785 784
f 753 754 786
f 753 786 785
f 754 755 787
f 754 787 786
f 755 756 788
f 755 788 787
f 756 757 789
f 756 789 788
f 757 758 790
f 757 790 789
f 758 759 791
f 758 791 790
f 759 760 792
f 759 792 791
f 760 761 793
f 760 793 792
f 761 762 794
f 761 794 793
f 762 763 795
f 762 795 794
f 763 764 796
f 763 796 795
f 764 765 797
f 764 797 796
f 765 766 798
f 765 798 797
f 766 767 799
f 766 799 798
f 767 768 800
f 767 800 799
f 768 737 769
f 768 769 800
f 769 770 802
f 769 802 801
f 770 771 803
f 770 803 802
f 771 772 804
f 771 804 803
f 772 773 805
f 772 805 804
f 773 774 806
f 773 806 805
f 774 775 807
f 774 807 806
f 775 776 808
f 775 808 807
f 776 777 809
f 776 809 808
f 777 778 810
f 777 810 809
f 778 779 811
f 778 811 810
f 779 780 812
f 779 812 811
f 780 781 813
f 780 813 812
f 781 782 814
f 781 814 813
f 782 783 815
f 782 815 814
f 783 784 816
f 783 816 815
f 784 785 817
f 784 817 816
f 785 786 818
f 785 818 817
f 786 787 819
f 786 819 818
f 787 788 820
f 787 820 819
f 788 789 821
f 788 821 820
f 789 790 822
f 789 822 821
f 790 791 823
f 790 823 822
f 791 792 824
f 791 824 823
f 792 793 825
f 792 825 824
f 793 794 826
f 793 826 825
f 794 795 827
f 794 827 826
f 795 796 828
f 795 828 827
f 796 797 829
f 796 829 828
f 797 798 830
f 797 830 829
f 798 799 831
f 798 831 830
f 799 800 832
f 799 832 831
f 800 769 801
f 800 801 832
f 801 802 834
f 801 834 833
f 802 803 835
f 802 835 834
f 803 804 836
f 803 836 835
f 804 805 837
f 804 837 836
f 805 806 838
f 805 838 837
f 806 807 839
f 806 839 838
f 807 808 840
f 807 840 839
f 808 809 841
f 808 841 840
f 809 810 842
f 809 842 841
f 810 811 843
f 810 843 842
f 811 812 844
f 811 844 843
f 812 813 845
f 812 845 844
f 813 814 846
f 813 846 845
f 814 815 847
f 814 847 846
f 815 816 848
f 815 848 847
f 816 817 849
f 816 849 848
f 817 818 850
f 817 850 849
f 818 819 851
f 818 851 850
f 819 820 852
f 819 852 851
f 820 821 853
f 820 853 852
f 821 822 854
f 821 854 853
f 822 823 855
f 822 855 854
f 823 824 856
f 823 856 855
f 824 825 857
f 824 857 856
f 825 826 858
f 825 858 857
f 826 827 859
f 826 859 858
f 827 828 860
f 827 860 859
f 828 829 861
f 828 861 860
f 829 830 862
f 829 862 861
f 830 831 863
f 830 863 862
f 831 832 864
f 831 864 863
f 832 801 833
f 832 833 864
f 833 834 866
f 833 866 865
f 834 835 867
f 834 867 866
f 835 836 868
f 835 868 867
f 836 837 869
f 836 869 868
f 837 838 870
f 837 870 869
f 838 839 871
f 838 871 870
f 839 840 872
f 839 872 871
f 840 841 873
f 840 873 872
f 841 842 874
f 841 874 873
f 842 843 875
f 842 875 874
f 843 844 876
f 843 876 875
f 844 845 877
f 844 877 876
f 845 846 878
f 845 878 877
f 846 847 879
f 846 879 878
f 847 848 880
f 847 880 879
f 848 849 881
f 848 881 880
f 849 850 882
f 849 882 881
f 850 851 883
f 850 883 882
f 851 852 884
f 851 884 883
f 852 853 885
f 852 885 884
f 853 854 886
f 853 886 885
f 854 855 887
f 854 887 886
f 855 856 888
f 855 888 887
f 856 857 889
f 856 889 888
f 857 858 890
f 857 890 889
f 858 859 891
f 858 891 890
f 859 860 892
f 859 892 891
f 860 861 893
f 860 893 892
f 861 862 894
f 861 894 893
f 862 863 895
f 862 895 894
f 863 864 896
f 863 896 895
f 864 833 865
f 864 865 896
f 865 866 898
f 865 898 897
f 866 867 899
f 866 899 898
f 867 868 900
f 867 900 899
f 868 869 901
f 868 901 900
f 869 870 902
f 869 902 901
f 870 871 903
f 870 903 902
f 871 872 904
f 871 904 903
f 872 873 905
f 872 905 904
f 873 874 906
f 873 906 905
f 874 875 907
f 874 907 906
f 875 876 908
f 875 908 907
f 876 877 909
f 876 909 908
f 877 878 910
f 877 910 909
f 878 879 911
f 878 911 910
f 879 880 912
f 879 912 911
f 880 881 913
f 880 913 912
f 881 882 914
f 881 914 913
f 882 883 915
f 882 915 914
f 883 884 916
f 883 916 915
f 884 885 917
f 884 917 916
f 885 886 918
f 885 918 917
f 886 887 919
f 886 919 918
f 887 888 920
f 887 920 919
f 888 889 921
f 888 921 920
f 889 890 922
f 889 922 921
f 890 891 923
f 890 923 922
f 891 892 924
f 891 924 923
f 892 893 925
f 892 925 924
f 893 894 926
f 893 926 925
f 894 895 927
f 894 927 926
f 895 896 928
f 895 928 927
f 896 865 897
f 896 897 928
f 897 898 930
f 897 930 929
f 898 899 931
f 898 931 930
f 899 900 932
f 899 932 931
f 900 901 933
f 900 933 932
f 901 902 934
f 901 934 933
f 902 903 935
f 902 935 934
f 903 904 936
f 903 936 935
f 904 905 937
f 904 937 936
f 905 906 938
f 905 938 937
f 906 907 939
f 906 939 938
f 907 908 940
f 907 940 939
f 908 909 941
f 908 941 940
f 909 910 942
f 909 942 941
f 910 911 943
f 910 943 942
f 911 912 944
f 911 944 943
f 912 913 945
f 912 945 944
f 913 914 946
f 913 946 945
f 914 915 947
f 914 947 946
f 915 916 948
f 915 948 947
f 916 917 949
f 916 949 948
f 917 918 950
f 917 950 949
f 918 919 951
f 918 951 950
f 919 920 952
f 919 952 951
f 920 921 953
f 920 953 952
f 921 922 954
f 921 954 953
f 922 923 955
f 922 955 954
f 923 924 956
f 923 956 955
f 924 925 957
f 924 957 956
f 925 926 958
f 925 958 957
f 926 927 959
f 926 959 958
f 927 928 960
f 927 960 959
f 928 897 929
f 928 929 960
f 929 930 962
f 929 962 961
f 930 931 963
f 930 963 962
f 931 932 964
f 931 964 963
f 932 933 965
f 932 965 964
f 933 934 966
f 933 966 965
f 934 935 967
f 934 967 966
f 935 936 968
f 935 968 967
f 936 937 969
f 936 969 968
f 937 938 970
f 937 970 969
f 938 939 971
f 938 971 970
f 939 940 972
f 939 972 971
f 940 941 973
f 940 973 972
f 941 942 974
f 941 974 973
f 942 943 975
f 942 975 974
f 943 944 976
f 943 976 975
f 944 945 977
f 944 977 976
f 945 946 978
f 945 978 977
f 946 947 979
f 946 979 978
f 947 948 980
f 947 980 979
f 948 949 981
f 948 981 980
f 949 950 982
f 949 982 981
f 950 951 983
f 950 983 982
f 951 952 984
f 951 984 983
f 952 953 985
f 952 985 984
f 953 954 986
f 953 986 985
f 954 955 987
f 954 987 986
f 955 956 988
f 955 988 987
f 956 957 989
f 956 989 988
f 957 958 990
f 957 990 989
f 958 959 991
f 958 991 990
f 959 960 992
f 959 992 991
f 960 929 961
f 960 961 992
f 961 962 994
f 961 994 993
f 962 963 995
f 962 995 994
f 963 964 996
f 963 996 995
f 964 965 997
f 964 997 996
f 965 966 998
f 965 998 997
f 966 967 999
f 966 999 998
f 967 968 1000
f 967 1000 999
f 968 969 1001
f 968 1001 1000
f 969 970 1002
f 969 1002 1001
f 970 971 1003
f 970 1003 1002
f 971 972 1004
f 971 1004 1003
f 972 973 1005
f 972 1005 1004
f 973 974 1006
f 973 1006 1005
f 974 975 1007
f 974 1007 1006
f 975 976 1008
f 975 1008 1007
f 976 977 1009
f 976 1009 1008
f 977 978 1010
f 977 1010 1009
f 978 979 1011
f 978 1011 1010
f 979 980 1012
f 979 1012 1011
f 980 981 1013
f 980 1013 1012
f 981 982 1014
f 981 1014 1013
f 982 983 1015
f 982 1015 1014
f 983 984 1016
f 983 1016 1015
f 984 985 1017
f 984 1017 1016
f 985 986 1018
f 985 1018 1017
f 986 987 1019
f 986 1019 1018
f 987 988 1020
f 987 1020 1019
f 988 989 1021
f 988 1021 1020
f 989 990 1022
f 989 1022 1021
f 990 991 1023
f 990 1023 1022
f 991 992 1024
f 991 1024 1023
f 992 961 993
f 992 993 1024
f 993 994 1026
f 993 1026 1025
f 994 995 1027
f 994 1027 1026
f 995 996 1028
f 995 1028 1027
f 996 997 1029
f 996 1029 1028
f 997 998 1030
f 997 1030 1029
f 998 999 1031
f 998 1031 1030
f 999 1000 1032
f 999 1032 1031
f 1000 1001 1033
f 1000 1033 1032
f 1001 1002 1034
f 1001 1034 1033
f 1002 1003 1035
f 1002 1035 1034
f 1003 1004 1036
f 1003 1036 1035
f 1004 1005 1037
f 1004 1037 1036
f 1005 1006 1038
f 1005 1038 1037
f 1006 1007 1039
f 1006 1039 1038
f 1007 1008 1040
f 1007 1040 1039
f 1008 1009 1041
f 1008 1041 1040
f 1009 1010 1042
f 1009 1042 1041
f 1010 1011 1043
f 1010 1043 1042
f 1011 1012 1044
f 1011 1044 1043
f 1012 1013 1045
f 1012 1045 1044
f 1013 1014 1046
f 1013 1046 1045
f 1014 1015 1047
f 1014 1047 1046
f 1015 1016 1048
f 1015 1048 1047
f 1016 1017 1049
f 1016 1049 1048
f 1017 1018 1050
f 1017 1050 1049
f 1018 1019 1051
f 1018 1051 1050
f 1019 1020 1052
f 1019 1052 1051
f 1020 1021 1053
f 1020 1053 1052
f 1021 1022 1054
f 1021 1054 1053
f 1022 1023 1055
f 1022 1055 1054
f 1023 1024 1056
f 1023 1056 1055
f 1024 993 1025
f 1024 1025 1056
f 1025 1026 1058
f 1025 1058 1057
f 1026 1027 1059
f 1026 1059 1058
f 1027 1028 1060
f 1027 1060 1059
f 1028 1029 1061
f 1028 1061 1060
f 1029 1030 1062
f 1029 1062 1061
f 1030 1031 1063
f 1030 1063 1062
f 1031 1032 1064
f 1031 1064 1063
f 1032 1033 1065
f 1032 1065 1064
f 1033 1034 1066
f 1033 1066 1065
f 1034 1035 1067
f 1034 1067 1066
f 1035 1036 1068
f 1035 1068 1067
f 1036 1037 1069
f 1036 1069 1068
f 1037 1038 1070
f 1037 1070 1069
f 1038 1039 1071
f 1038 1071 1070
f 1039 1040 1072
f 1039 1072 1071
f 1040 1041 1073
f 1040 1073 1072
f 1041 1042 1074
f 1041 1074 1073
f 1042 1043 1075
f 1042 1075 1074
f 1043 1044 1076
f 1043 1076 1075
f 1044 1045 1077
f 1044 1077 1076
f 1045 1046 1078
f 1045 1078 1077
f 1046 1047 1079
f 1046 1079 1078
f 1047 1048 1080
f 1047 1080 1079
f 1048 1049 1081
f 1048 1081 1080
f 1049 1050 1082
f 1049 1082 1081
f 1050 1051 1083
f 1050 1083 1082
f 1051 1052 1084
f 1051 1084 1083
f 1052 1053 1085
f 1052 1085 1084
f 1053 1054 1086
f 1053 1086 1085
f 1054 1055 1087
f 1054 1087 1086
f 1055 1056 1088
f 1055 1088 1087
f 1056 1025 1057
f 1056 1057 1088
f 1 2 546
f 1 546 545
f 2 3 547
f 2 547 546
f 3 4 548
f 3 548 547
f 4 5 549
f 4 549 548
f 5 6 550
f 5 550 549
f 6 7 551
f 6 551 550
f 7 8 552
f 7 552 551
f 8 9 553
f 8 553 552
f 9 10 554
f 9 554 553
f 10 11 555
f 10 555 554
f 11 12 556
f 11 556 555
f 12 13 557
f 12 557 556
f 13 14 558
f 13 558 557
f 14 15 559
f 14 559 558
f 15 16 560
f 15 560 559
f 16 17 561
f 16 561 560
f 17 18 562
f 17 562 561
f 18 19 563
f 18 563 562
f 19 20 564
f 19 564 563
f 20 21 565
f 20 565 564
f 21 22 566
f 21 566 565
f 22 23 567
f 22 567 566
f 23 24 568
f 23 568 567
f 24 25 569
f 24 569 568
f 25 26 570
f 25 570 569
f 26 27 571
f 26 571 570
f 27 28 572
f 27 572 571
f 28 29 573
f 28 573 572
f 29 30 574
f 29 574 573
f 30 31 575
f 30 575 574
f 31 32 576
f 31 576 575
f 32 1 545
f 32 545 576
