# Generated mesh
v 0.050000 0.000000 -0.000000
v 0.035355 0.035355 -0.000000
v 0.000000 0.050000 -0.000000
v -0.035355 0.035355 -0.000000
v -0.050000 0.000000 -0.000000
v -0.035355 -0.035355 -0.000000
v -0.000000 -0.050000 -0.000000
v 0.035355 -0.035355 -0.000000
v 0.046194 0.000000 -0.009567
v 0.032664 0.032664 -0.009567
v 0.000000 0.046194 -0.009567
v -0.032664 0.032664 -0.009567
v -0.046194 0.000000 -0.009567
v -0.032664 -0.032664 -0.009567
v -0.000000 -0.046194 -0.009567
v 0.032664 -0.032664 -0.009567
v 0.035355 0.000000 -0.017678
v 0.025000 0.025000 -0.017678
v 0.000000 0.035355 -0.017678
v -0.025000 0.025000 -0.017678
v -0.035355 0.000000 -0.017678
v -0.025000 -0.025000 -0.017678
v -0.000000 -0.035355 -0.017678
v 0.025000 -0.025000 -0.017678
v 0.019134 0.000000 -0.023097
v 0.013530 0.013530 -0.023097
v 0.000000 0.019134 -0.023097
v -0.013530 0.013530 -0.023097
v -0.019134 0.000000 -0.023097
v -0.013530 -0.013530 -0.023097
v -0.000000 -0.019134 -0.023097
v 0.013530 -0.013530 -0.023097
v 0.000000 0.000000 -0.025000
v 0.000000 0.000000 -0.025000
v 0.000000 0.000000 -0.025000
v -0.000000 0.000000 -0.025000
v -0.000000 0.000000 -0.025000
v -0.000000 -0.000000 -0.025000
v -0.000000 -0.000000 -0.025000
v 0.000000 -0.000000 -0.025000
v 0.045000 0.000000 -0.000000
v 0.031820 0.031820 -0.000000
v 0.000000 0.045000 -0.000000
v -0.031820 0.031820 -0.000000
v -0.045000 0.000000 -0.000000
v -0.031820 -0.031820 -0.000000
v -0.000000 -0.045000 -0.000000
v 0.031820 -0.031820 -0.000000
v 0.041575 0.000000 -0.009567
v 0.029398 0.029398 -0.009567
v 0.000000 0.041575 -0.009567
v -0.029398 0.029398 -0.009567
v -0.041575 0.000000 -0.009567
v -0.029398 -0.029398 -0.009567
v -0.000000 -0.041575 -0.009567
v 0.029398 -0.029398 -0.009567
v 0.031820 0.000000 -0.017678
v 0.022500 0.022500 -0.017678
v 0.000000 0.031820 -0.017678
v -0.022500 0.022500 -0.017678
v -0.031820 0.000000 -0.017678
v -0.022500 -0.022500 -0.017678
v -0.000000 -0.031820 -0.017678
v 0.022500 -0.022500 -0.017678
v 0.017221 0.000000 -0.023097
v 0.012177 0.012177 -0.023097
v 0.000000 0.017221 -0.023097
v -0.012177 0.012177 -0.023097
v -0.017221 0.000000 -0.023097
v -0.012177 -0.012177 -0.023097
v -0.000000 -0.017221 -0.023097
v 0.012177 -0.012177 -0.023097
v 0.000000 0.000000 -0.025000
v 0.000000 0.000000 -0.025000
v 0.000000 0.000000 -0.025000
v -0.000000 0.000000 -0.025000
v -0.000000 0.000000 -0.025000
v -0.000000 -0.000000 -0.025000
v -0.000000 -0.000000 -0.025000
v 0.000000 -0.000000 -0.025000
f 1 10 2
f 1 9 10
f 2 11 3
f 2 10 11
f 3 12 4
f 3 11 12
f 4 13 5
f 4 12 13
f 5 14 6
f 5 13 14
f 6 15 7
f 6 14 15
f 7 16 8
f 7 15 16
f 8 9 1
f 8 16 9
f 9 18 10
f 9 17 18
f 10 19 11
f 10 18 19
f 11 20 12
f 11 19 20
f 12 21 13
f 12 20 21
f 13 22 14
f 13 21 22
f 14 23 15
f 14 22 23
f 15 24 16
f 15 23 24
f 16 17 9
f 16 24 17
f 17 26 18
f 17 25 26
f 18 27 19
f 18 26 27
f 19 28 20
f 19 27 28
f 20 29 21
f 20 28 29
f 21 30 22
f 21 29 30
f 22 31 23
f 22 30 31
f 23 32 24
f 23 31 32
f 24 25 17
f 24 32 25
f 25 34 26
f 25 33 34
f 26 35 27
f 26 34 35
f 27 36 28
f 27 35 36
f 28 37 29
f 28 36 37
f 29 38 30
f 29 37 38
f 30 39 31
f 30 38 39
f 31 40 32
f 31 39 40
f 32 33 25
f 32 40 33
f 41 42 50
f 41 50 49
f 42 43 51
f 42 51 50
f 43 44 52
f 43 52 51
f 44 45 53
f 44 53 52
f 45 46 54
f 45 54 53
f 46 47 55
f 46 55 54
f 47 48 56
f 47 56 55
f 48 41 49
f 48 49 56
f 49 50 58
f 49 58 57
f 50 51 59
f 50 59 58
f 51 52 60
f 51 60 59
f 52 53 61
f 52 61 60
f 53 54 62
f 53 62 61
f 54 55 63
f 54 63 62
f 55 56 64
f 55 64 63
f 56 49 57
f 56 57 64
f 57 58 66
f 57 66 65
f 58 59 67
f 58 67 66
f 59 60 68
f 59 68 67
f 60 61 69
f 60 69 68
f 61 62 70
f 61 70 69
f 62 63 71
f 62 71 70
f 63 64 72
f 63 72 71
f 64 57 65
f 64 65 72
f 65 66 74
f 65 74 73
f 66 67 75
f 66 75 74
f 67 68 76
f 67 76 75
f 68 69 77
f 68 77 76
f 69 70 78
f 69 78 77
f 70 71 79
f 70 79 78
f 71 72 80
f 71 80 79
f 72 65 73
f 72 73 80
f 1 2 42
f 1 42 41
f 2 3 43
f 2 43 42
f 3 4 44
f 3 44 43
f 4 5 45
f 4 45 44
f 5 6 46
f 5 46 45
f 6 7 47
f 6 47 46
f 7 8 48
f 7 48 47
f 8 1 41
f 8 41 48
