# https://github.com/mikedh/trimesh
v -0.12162763 -0.20069003 -0.05318272
v -0.12161374 -0.19638987 -0.11871469
v -0.12161374 -0.12878786 -0.05319246
v -0.19737132 -0.12878786 -0.05319246
v -0.19742890 -0.20229907 -0.11622397
v -0.15191677 -0.12878786 -0.11871470
v -0.19737132 -0.20229910 -0.05319246
v -0.12161374 -0.12878786 -0.11871470
v -0.19737132 -0.12878786 -0.11871470
v -0.19737132 -0.17424240 -0.11871469
f 1 2 3
f 1 3 4
f 5 2 1
f 6 4 3
f 7 5 1
f 7 1 4
f 7 4 5
f 8 6 3
f 8 3 2
f 9 5 4
f 9 4 6
f 9 6 8
f 10 2 5
f 10 5 9
f 10 9 8
f 10 8 2

