# https://github.com/mikedh/trimesh
v -0.12161374 -0.21969695 -0.02288943
v -0.12161374 -0.21969695 -0.03804095
v -0.12158307 -0.19791282 -0.05321399
v -0.15191676 -0.19400671 -0.00773792
v -0.13676526 -0.21969695 -0.02288943
v -0.12158266 -0.19802770 -0.00775974
v -0.15191678 -0.20229901 -0.05319246
v -0.15191678 -0.20229900 -0.00773792
v -0.12162763 -0.20069003 -0.05318272
v -0.13676526 -0.21969695 -0.03804095
v -0.15191676 -0.19400671 -0.05319246
v -0.12162722 -0.20080487 -0.00772846
f 5 2 1
f 6 3 4
f 6 1 2
f 6 2 3
f 8 5 1
f 8 7 5
f 9 7 3
f 9 3 2
f 9 2 7
f 10 7 2
f 10 2 5
f 10 5 7
f 11 4 3
f 11 3 7
f 11 8 4
f 11 7 8
f 12 8 1
f 12 1 6
f 12 6 4
f 12 4 8

