# https://github.com/mikedh/trimesh
v -0.12161374 -0.21969695 -0.02168958
v -0.12161374 -0.21969695 -0.05199261
v -0.12158305 -0.19791889 -0.05201415
v -0.15191676 -0.19400671 -0.00653807
v -0.13676526 -0.21969695 -0.02168958
v -0.15191676 -0.19400671 -0.05199261
v -0.12158263 -0.19803377 -0.00655990
v -0.13676526 -0.21969695 -0.05199261
v -0.15191678 -0.20229901 -0.05199261
v -0.15191678 -0.20229900 -0.00653807
v -0.12162719 -0.20081094 -0.00652863
f 5 2 1
f 6 4 3
f 7 3 4
f 7 1 2
f 7 2 3
f 8 3 2
f 8 2 5
f 9 8 5
f 9 6 3
f 9 3 8
f 10 5 1
f 10 9 5
f 10 4 6
f 10 6 9
f 11 10 1
f 11 1 7
f 11 7 4
f 11 4 10

